<?xml version="1.0" encoding="UTF-8"?>
<svg version="1.1" viewBox="0 0 2000 2000" width="1280" height="1280" xmlns="http://www.w3.org/2000/svg">
<path transform="translate(1026,101)" d="m0 0 5 1 25 14 24 14 78 45 24 14 28 16 24 14 52 30 13 8 8 16 5 17 3 16 2 23v42l-2 30-4 34-6 36-7 30-5 17-4 10v2l20 12 6 5 7 11 3 10 1 73h74l36 1 37 3 26 4 15 4v2h2l3-9 10-24 7-11 7-7 14-8 16-5 13-2h17l15 3 16 8 9 8 7 11 4 9 5 18 3 25 3 5v9l-4 11-4 35v15l4 10 9 10 15 14 9 10 5 10 2 8v16l-4 10-5 6-2 1 1 6 14 34 14 29 4 6 10-2 16-6 15-8 14-10 11-9 3-4h-7l-6-4v-6l17-29 17-28 3-5 7-2 22-2h14l6 4-1 6-7 12-5 20-10 21-8 12-7 8-8 5-18 20-10 10-6 7-8 7-8 8-11 9-12 9-11 6-4 1h-16l-10-4-8-7-14-14-12-16-8-13-2-6h-2l-1 5-4 14-1 6v20l5 38 10 52 12 50 2 17 14 84 6 42 5 47 2 21 3 8v12l-2 4-3 31-9 68-14 117-11 97 1 5 12 11 6 10 8 4 24 5 25 6 19 7 10 6 6 7v7l-7 8-16 8-13 5-12 1-10 3-14 3-9 2-43 4-18 1h-61l-34-2-35-4-31-6-20-6-12-5-8-6-5-6v-7l7-8 16-8 19-6 12-3h9l-1-6 1-21 4-8 3-2-3-92-1-16-8 6-18 10-25 10-20 6-26 5-25 2-37-1 15 14 7 7 7 8 8 9 11 15 9 16 4 10 2 9v12l-4 11-9 10-16 8-15 4-15 2h-40l-29-3-36-6-36-8-38-10-38-12-44-15-21-8 2 23 3 27 5 1 14 12 10 10 11 14 7 10 6 14 1 5v11l-3 8-7 8-14 7-13 3-10 1h-18l-21-2-22-4-25-6-36-12-27-11-24-11-22-12-19-11-15-10-18-13-13-11-12-11-8-8-11-14-8-14-4-12v-13l5-10 8-7 8-4 15-4h7l1 1 2-9 7-60v-4l-8-4-42-28-17-12-17-13-16-13-14-12-5-5-1-3-2-1-2 5-6 7-3 3v50l2 6 1 7v33l5 1 7 12 4 13v12l-4 13-6 10-9 10-11 9-15 9-21 9-19 6-25 5-25 3h-40l-27-3-24-5-11-4v-3l-5 4 2 9 2 8v11l-3 11-7 13-11 12-12 9-16 9-17 7-19 6-24 5-26 3h-42l-26-3-27-6-21-7-19-9-15-10-10-9-7-8-7-14-2-9v-9l3-12 6-12 5-6 3-3 1-24 4-11 7-11 9-9 10-7h2l1-16 5-12 8-11 10-9 18-11 16-7 23-7 22-4 22-2h25l23 2 25 5 9 3-2-6v-63l4-11 7-11 5-5 1-46 2-8-5 12-10 5-25 7-26 4-25 2h-37l-25-2-25-4-19-5-16-6-12-7-7-7-3-6v-7l4-7 9-8 14-7 8-1v-160l2-9 6-10 10-9 14-8 21-7 16-3 17-1-1-38-3-16-6-15-7-12-11-13-10-8-4 16-7 11-7 7-11 7-11 5-15 4-15 2h-20l-15-3-14-7-5-5 1-7 8-20 11-21 8-12 9-11 10-9 10-5 4-1h17l8 4 5 6 3 7 1 5 18 8 15 9 15 13 10 12 5 8-1-17-5-37-7-34-8-27-4-11-16 8-13 1-12-3-11-7-10-13-8-17-4-15-2-14v-13l3-16 5-14 7-12 11-12 8-7 6-2h8l14 3 14 7 11 9 11 14 9 16 5 13 3 14 1 9 10-10 14-8 12-4 6-1h20l15 3 16 6 15 8 11 8 4 3-1 5-12 17-13 16-9 10-14 14-13 9-10 5-4 1h-15l-10-4-5-5-4-6-2-9-1-1-8 19-6 21-3 17-1 10v19l2 11 6-8 10-9 15-8 15-5 18-3 3-12 4-6 5-4 3-1h13l12 4 12 7 12 12 8 13 6 18 1 6v31l-4 20-3 8-9-1-28-8-19-7-21-10-14-10-7-8-4-8-2-12 2-9 3-6-10 4-11 8-7 8-5 10-2 6 1 23 1 22v37l18 1 20 4 19 7 13 8 9 8 6 10 2 8v161l7 1 16 8 6 5v5l-3 6 11-11 15-10 19-9 22-7 20-4 16-2 16-1h17l24 2 22 4 15 4 19 7 10 4 1-3 12-4 18-3 20-1v-101l-3 1h-22l-17-3-21-7-20-10-15-10-14-11-15-14-12-12-9-11-10-13-14-21-12-21-11-22-11-28-8-26-5-22-4-31v-37l3-23 6-23 8-19 8-15 10-14 4-2 1 1 2-203 3-9 5-4 24-3 12-1 9 3-13-25-12-21-11-23-6-19-3-18v-27l3-20 7-27 4-9 2-7 4-3 1-6 6-11 12-18 8-10 9-10 6-7 8-7 12-10 17-12 21-12 19-9 24-9 25-7 25-5 24-3 14-1h35l29 3 22 4 13 3 3-12 10-27 13-26 13-20 9-12 9-11 12-13 10-10 11-9 14-11 15-10zm-697 776-8 11-10 6-7 2 3 11 6 19 6 24 2-1 6-23 6-16 8-17 3-6-10-6zm1181 58-8 51-7 84-6 76 1 5 10 15 4 7h1v-18l-1-24-2-8v-16l4-31 15-79 5-34 1-13v-13zm-60 134-8 11-12 18-8 16-6 15-5 21-1 8v26l2 14 2 9h4l5-2 10 6h2l8-16 5-5 2-17 6-24-2-34-3-46zm146 105-4 4-2 6-9 104v9l1 1 14 119 13 112-6 2-24 14-22 12-7-2-5 37-5 41v8l12 11 4 4 6 8 8 2h58l2-18 3-6 4-4-1-31-2-50-1-38v-78l2-42 3-26 3-16v-30l-5-2h-3l-2-9v-8l1-9-6-33-16-71-3-12-5-8zm-91 15-5 5 5 6h2l-1-11zm-47 8-5 6-5 13 1 4 27 16 28 16h2l-1-10-5-17-7-14-8-3-3-3-7 1-5-5h-2v2l-7-3zm35 2m1 1m1 1m1 1 10 20 1-4-7-13zm-1052 136m-4 6 1 2zm-1 2m478 28-3 6-4 19-1 12 26 15 25 15h3l-4-20-6-16-6-11-9-10-11-7zm-12 3-7 8-5 10-1 6 7 4h2l5-24zm46 8 2 5 6 10 6 15 5 21 2 11 8 5h2v-11l3-9 2 6v18l2 1v-26l-1-4h-4l-5-13-3-12-6-7-14-8zm-771 276v9l2 5 1-4-2-10zm1529 17 5 4h2l-2-4z" fill="#9894FC"/>
<path transform="translate(1026,101)" d="m0 0 5 1 25 14 24 14 78 45 24 14 28 16 24 14 52 30 13 8 8 16 5 17 3 16 2 23v42l-2 30-4 34-6 36-7 30-5 17-4 10v2l20 12 6 5 7 11 3 10v1043l-6 12-8 6-11 4-43 12-28 8-5 1h-16l-12-5-24-14-23-13-24-14-25-14-43-25-2-2-3-25v-6l4 1 25 14 24 14 25 14 24 14 28 16 26 15 6 3 8-1 3-3 1-3v-1021l-3-5-101-59-22-13v51l-4 5-2 1h-7l-25-14-15-9-120-70-29-17-13-8-2-4v-63l-6-2-99-58-14-8h-7l-5 4-1 3v354l21 13 20 12 28 17 158 96 74 45 26 16 8 7 7 11 4 8 1 4v231l-1 101-3 7-6 5-17 2h-11l5-6 1-3v-120l-13-23-14-24-4-10-5-6-16-28-13-23-12-21-6-11-26-16-15-9-56-34-15-9-13-8-24-14-49-30-30-18-17-11-20-12-16-10-24-14-15-9-23-14-13-8-5-3v-2l-5-1-18-11-14-9-14-8-26-16-3-1v-114l3-9 5-4 24-3 12-1 9 3-13-25-12-21-11-23-6-19-3-18v-27l3-20 7-27 4-9 2-7 4-3 1-6 6-11 12-18 8-10 9-10 6-7 8-7 12-10 17-12 21-12 19-9 24-9 25-7 25-5 24-3 14-1h35l29 3 22 4 13 3 3-12 10-27 13-26 13-20 9-12 9-11 12-13 10-10 11-9 14-11 15-10z" fill="#7533ED"/>
<path transform="translate(757,325)" d="m0 0h7l23 13 27 16 26 15 29 17 14 8 1 63 2 4 26 15 27 16 26 15 48 28 53 31 21 12h7l5-5 1-51 5 2 26 15 53 31 29 17 11 7 3 5v1021l-3 5-5 3-7-1-20-11-24-14-25-14-17-10-28-16-26-15-19-11-2-3-5-42-26-15-17-10-5-3-1-30-3-25-5-19-6-15-8-12-7-8-12-8-7-3-5-1h-9l-10 4-9 9-6 11-11 6-8 9-7 14-4-1-7-4h-5l-20 12-6 4-1 7-5-1-17-10-56-32-9-6-3-3-1-3v-253l1-23 10 5 16 10 15 9 51 31 26 16 20 12 28 17 16 10 17 10 39 24 27 16 26 16 9 4h10l27-3 6-5 2-6 1-101v-231l-4-10-6-10-6-7-19-12-27-16-16-10-20-12-130-79-107-65-11-7-1-1v-354l3-5z" fill="#FCFCFC"/>
<path transform="translate(1586,589)" d="m0 0h17l15 3 16 8 9 8 7 11 4 9 5 18 3 25 3 5v9l-4 11-4 35v15l4 10 9 10 15 14 9 10 5 10 2 8v16l-4 10-5 6-2 1 1 6 14 34 14 29 4 6 10-2 16-6 15-8 14-10 11-9 3-4h-7l-6-4v-6l17-29 17-28 3-5 7-2 22-2h14l6 4-1 6-7 12-5 20-10 21-8 12-7 8-8 5-18 20-10 10-6 7-8 7-8 8-11 9-12 9-11 6-4 1h-16l-10-4-8-7-14-14-12-16-8-13-2-6h-2l-1 5-4 14-1 6v20l5 38 10 52 12 50 2 17 14 84 6 42 5 47 2 21 3 8v12l-2 4-3 31-9 68-14 117-11 97 1 5 12 11 6 10 8 4 24 5 25 6 19 7 10 6 6 7v7l-7 8-16 8-13 5-12 1-10 3-14 3-9 2-43 4-18 1h-61l-34-2-35-4-31-6-20-6-12-5-8-6-5-6v-7l7-8 16-8 19-6 12-3h9l-1-6 1-21 4-8 3-2-3-92-1-18-25-14-45-26-63-36v-9l26-221 1-3 11-6 13-8 3-1 12 7 3-9 6-9 3-3 2-17 6-24-2-34-3-49v-34l4-33 4-27 11-98v-6l-17-10-6-6-1-3v-11l8-16 16-24 4-8 1-4v-10l-5-10-6-10-1-3v-12l4-10 6-8 8-7 16-10 7-8 6-25 9-25 11-26 7-11 7-7 14-8 16-5zm-76 346-8 51-7 84-6 76 1 5 10 15 4 7h1v-18l-1-24-2-8v-16l4-31 15-79 5-34 1-13v-13zm86 239-4 4-2 6-9 104v9l1 1 14 119 13 112-6 2-24 14-22 12-7-2-5 37-5 41v8l12 11 4 4 6 8 8 2h58l2-18 3-6 4-4-1-31-2-50-1-38v-78l2-42 3-26 3-16v-30l-5-2h-3l-2-9v-8l1-9-6-33-16-71-3-12-5-8zm-91 15-5 5 5 6h2l-1-11zm-47 8-5 6-5 13 1 4 27 16 28 16h2l-1-10-5-17-7-14-8-3-3-3-7 1-5-5h-2v2l-7-3zm35 2m1 1m1 1m1 1 10 20 1-4-7-13zm213 476 5 4h2l-2-4z" fill="#8066F6"/>
<path transform="translate(542,720)" d="m0 0 4 1 17 10 21 13h2v2l5 2 18 11 10 6 3 1v2l5 2 15 9 23 14 20 12 22 13 21 13 18 11 11 7 15 9 23 14 10 6 18 11 13 8 22 13 15 9 56 34 18 11 20 12 17 11 6 11 14 25 12 21 15 26 6 7 3 9 12 21 15 26v120l-3 6-3 4h-10l-16-8-16-10-25-15-28-17-18-11-11-7-9-5-16-10-40-24-21-13-56-34-20-12-21-13-2-1-1 22v253l3 5 9 6 25 14 24 14 23 13 5 3v9l-2 18-1 2-5-2-25-14-24-14-23-13-22-13-8-8-5-10-1-4-1-162-3 1h-22l-17-3-21-7-20-10-15-10-14-11-15-14-12-12-9-11-10-13-14-21-12-21-11-22-11-28-8-26-5-22-4-31v-37l3-23 6-23 8-19 8-15 10-14 4-2 1 1 1-88z" fill="#8066F6"/>
<path transform="translate(1026,101)" d="m0 0 5 1 25 14 24 14 78 45 24 14 28 16 24 14 52 30 13 8 8 16 5 17 3 16 2 23v42l-2 30-4 34-6 36-7 30-5 17-5 12-11-6-52-30-22-13-26-15-10-6-2 13-1 22-5-2-25-14-17-10-26-15-48-28-26-15-24-14-26-15-48-28-26-15-2-1v-25l1-14-24-14-26-15-12-6h-13l-17 8-18 10-28 15-16 9-8 9-4 8-1 4-1 344-11-6-28-17-20-12-23-14-26-16-22-13-1-5-10-19-14-25-10-21-6-19-3-18v-27l3-20 7-27 4-9 2-7 4-3 1-6 6-11 12-18 8-10 9-10 6-7 8-7 12-10 17-12 21-12 19-9 24-9 25-7 25-5 24-3 14-1h35l29 3 22 4 13 3 3-12 10-27 13-26 13-20 9-12 9-11 12-13 10-10 11-9 14-11 15-10z" fill="#E0E0E1"/>
<path transform="translate(1325,641)" d="m0 0h75l36 1 37 3 26 4 15 4v2l2 1-8 24-4 18-8 9-17 11-9 8-6 11-1 4v12l6 12 5 8 1 3v10l-4 10-10 16-10 15-5 11v11l3 5 8 6 12 7 1 1-1 15-11 98-5 32-2 19v37l-8 11-12 18-8 16-6 15-5 21-1 8v26l2 14 2 11-16 10h-3l-4 37-14 119-9 77 6 2 45 26 28 16 24 14 25 14 5 3-1 4-10 7-17 9-23 9-20 6-26 5-25 2-37-1 15 14 7 7 7 8 8 9 11 15 9 16 4 10 2 9v12l-4 11-9 10-16 8-15 4-15 2h-40l-29-3-36-6-36-8-38-10-38-12-44-15-21-8-2-6-7-61v-5l6 2 23 13 24 14 25 14 24 14 28 16 16 9 6 2h16l30-8 39-11 16-5 9-6 6-12z" fill="#E0E0E1"/>
<path transform="translate(436,1374)" d="m0 0 8 16 11 12 8 6v2l6 2 10 6 17 7 19 6 15 3 30 3h26l23-2 28-6 21-7 16-8 8-5 9-7 5-5 8-10 4-9 2-4v49l-4 9-6 8-6 7v50l2 6 1 7v33l5 1 7 12 4 13v12l-4 13-6 10-9 10-11 9-15 9-21 9-19 6-25 5-25 3h-40l-27-3-24-5-11-4v-3l-5 4 2 9 2 8v11l-3 11-7 13-11 12-12 9-16 9-17 7-19 6-24 5-26 3h-42l-26-3-27-6-21-7-19-9-15-10-10-9-7-8-7-14-2-9v-9l3-12 6-12 5-6 3-3 1-24 4-11 7-11 9-9 10-7h2l1-16 5-12 8-11 10-9 18-11 16-7 23-7 22-4 22-2h25l23 2 25 5 9 3-2-6v-63l4-11 7-11 5-5zm-256 287v9l2 5 1-4-2-10z" fill="#9794FB"/>
<path transform="translate(817,263)" d="m0 0h13l16 8 24 14 22 13 1 5-1 10-1 25 6 2 48 28 26 15 24 14 26 15 48 28 26 15 27 16 16 9 24 14 2 1v-22l2-14 11 6 28 16 29 17 19 11 24 14 26 15 11 8 7 10 3 7 1 5v1043l-6 12-8 6-11 4-43 12-18 5-4-1 8-6 6-9 3-8v-1032l-5-13-7-8-20-12-38-22-16-10-11-6-14-8-27-16-15-9-11-6-15-9-17-10-35-20-15-9-21-12-13-8-28-16-20-12-62-36-17-10-19-11-39-23-10-6-9-3-12-1v-3l32-17 22-12z" fill="#252A3D"/>
<path transform="translate(259,764)" d="m0 0h8l14 3 14 7 11 9 11 14 9 16 5 13 3 14 1 9 10-10 14-8 12-4 6-1h20l15 3 16 6 15 8 11 8 4 3-1 5-12 17-13 16-9 10-14 14-13 9-10 5-4 1h-15l-10-4-5-5-4-6-2-9-1-1-8 19-6 21-3 17-1 10v19l2 11 6-8 10-9 15-8 15-5 18-3 3-12 4-6 5-4 3-1h13l12 4 12 7 12 12 8 13 6 18 1 6v31l-4 20-3 8-9-1-28-8-19-7-21-10-14-10-7-8-4-8-2-12 2-9 3-6-10 4-11 8-7 8-5 10-2 6 1 23 1 22v37l18 1 20 4 19 7 13 8 9 8 6 10 2 8v164l-2 9-5 8-5 6-13 9-13 6-16 5-19 3h-38l-21-4-17-6-13-7-11-9-7-11-1-3-1-169 2-9 6-10 10-9 14-8 21-7 16-3 17-1-1-38-3-16-6-15-7-12-11-13-10-8-4 16-7 11-7 7-11 7-11 5-15 4-15 2h-20l-15-3-14-7-5-5 1-7 8-20 11-21 8-12 9-11 10-9 10-5 4-1h17l8 4 5 6 3 7 1 5 18 8 15 9 15 13 10 12 5 8-1-17-5-37-7-34-8-27-4-11-16 8-13 1-12-3-11-7-10-13-8-17-4-15-2-14v-13l3-16 5-14 7-12 11-12 8-7zm70 113-8 11-10 6-7 2 3 11 6 19 6 24 2-1 6-23 6-16 8-17 3-6-10-6z" fill="#8066F6"/>
<path transform="translate(1493,1193)" d="m0 0h7l5 6 2 1 9 19 4 11 2 8 2 17v9l5 2 16 9 24 14 11 6 3 3 14 119 12 104v8l-22 12-21 12-9 5-6-2-3 20-7 57v8l10 9 5 4 6 9 8 2h56l2 1 1-18 3-6 6-5 1 10 13 3 16-1 2-1 2-5 14 12 6 10 8 4 24 5 25 6 19 7 10 6 6 7v7l-7 8-16 8-13 5-12 1-10 3-14 3-9 2-43 4-18 1h-61l-34-2-35-4-31-6-20-6-12-5-8-6-5-6v-7l7-8 16-8 19-6 12-3h9l-1-6 1-21 4-8 3-2-3-92-1-18-25-14-45-26-63-36v-9l26-221 2-3 15 9 14 8 2 2v10l-1 8h-2l2 10 4 3 5 1-1-9v-14l1-4 6 2 13 8 11 6 17 10 21 12 3 2v-19l-1-9-1-3-1-10-5-17-7-14-2-3 1-3h2zm1 7m1 1m1 1 10 20 1-4-7-13zm213 476 5 4h2l-2-4z" fill="#8066F6"/>
<path transform="translate(754,296)" d="m0 0h2v2l3-1 12 2 9 4 16 9 10 6 22 13 38 22 17 10 19 11 51 30 21 12 13 8 26 15 15 9 16 9 20 12 9 5 17 10 14 8 39 23 14 8 22 13 19 11 17 10 22 13 9 8 6 12 1 4v1032l-5 12-8 9-5 2v2l-11 3h-16l-12-5-24-14-23-13-24-14-25-14-43-25-2-2-3-25v-6l4 1 25 14 24 14 25 14 24 14 28 16 26 15 6 3 8-1 3-3 1-3v-1021l-3-5-101-59-22-13v51l-4 5-2 1h-7l-25-14-15-9-120-70-29-17-13-8-2-4v-63l-6-2-99-58-14-8h-7l-5 4-1 3-1 353-5-2-17-10-4-3v-344l4-10 6-8 7-6z" fill="#51557A"/>
<path transform="translate(688,808)" d="m0 0 5 2 14 8 21 13 18 11 11 7 15 9 23 14 10 6 18 11 13 8 22 13 15 9 56 34 18 11 20 12 17 11 6 11 14 25 12 21 15 26 6 7 3 9 12 21 15 26v120l-3 6-3 4h-10l-16-8-16-10-25-15-28-17-18-11-11-7-9-5-16-10-20-12-2-2v-3l-13-23-11-19-13-23-8-14-7-11-30-18-24-15-17-10-23-14-18-11-7-6v-11l1-9 7 3 15 9 21 13 15 9 23 14 15 9-1-4-13-23-15-26-9-16-14-24-9-16-2 3-4-1-22-13-11-7-3-4v-22l3-2 18 11-1-3-15-27-10-17-10-18-10-17z" fill="#8066F6"/>
<path transform="translate(1679,1101)" d="m0 0 2 2 13 76 8 55 5 47 2 21 3 8v12l-2 4-3 31-9 68-14 117-11 97-2 9-3 2-16 1-13-3-1-1-2-20-3-70-1-38v-78l2-42 3-26 3-16v-30l-7-2-3-9v-8l1-9-6-33-16-71-3-12-4-7-6-1h-2l-3 9-9 104-1 7-2 1-43-25-12-7-3-26-5-16-6-14-3-5-2-13-3 3h-9l1 6-1 6h-2v5h-5l-4-4-7 1-5-4v-2h-2v2l-6-1-3-4-3 3h-2l-3 9-2 9 27 16 21 12 9 6 1 2 1 9v20l-11-6-23-13-16-10-10-5-12-7v18l1 7-1 2-7-1-4-5v-8h2v-18l-30-18 5-4 9-6 12-6 12 7 3-9 6-9 3-3 2-17 6-24 15 1h20l10 14 4 7v-37l5 2 11 5 19 3h27l26-3 28-6 18-6 18-8 10-6 9-8z" fill="#51557A"/>
<path transform="translate(238,1290)" d="m0 0h1l1 31 5 10 5 6 13 9 13 6 16 5 17 3h38l19-3 21-7 13-7 10-8 6-9 2-5 2-9 7 1 16 8 6 5v5l-3 6 11-11 15-10 19-9 22-7 20-4 16-2 16-1h17l24 2 22 4 15 4 19 7 10 4 1-3 12-4 18-3 21-1 1 61 4 11 9 10 45 26 21 12 26 15 7 5-1 15-7 59-1 6-7-3-16-10-31-21-18-13-13-10-16-13-14-12-5-5-2-6 3-7v-45l-6 12-8 10-10 8-9 6-16 8-16 6-16 4-19 4-23 2h-26l-30-3-22-5-22-8-16-8-7-4v-2l-5-2-12-12-7-11-3-9v-17l2-8-5 12-10 5-25 7-26 4-25 2h-37l-25-2-25-4-19-5-16-6-12-7-7-7-3-6v-7l4-7 9-8 14-7 8-1zm206 48m-4 6 1 2z" fill="#9995FB"/>
<path transform="translate(1586,589)" d="m0 0h17l15 3 16 8 9 8 7 11 4 9 5 18 3 25 3 5v9l-4 11-4 35v15l4 10 9 10 15 14 9 10 5 10 2 8v16l-4 10-5 6-2 1 1 6 14 34 14 29 4 6 10-2 16-6 15-8 14-10 11-9 3-4h-7l-6-4v-6l17-29 17-28 3-5 7-2 22-2h14l6 4-1 6-7 12-5 20-10 21-8 12-7 8-8 5-18 20-10 10-6 7-8 7-8 8-11 9-12 9-11 6-4 1h-16l-10-4-8-7-14-14-12-16-8-13-3-8 6-16 3-14v-13l-4-15-4-10-3-12v-27l4-18v-10l-3-5v-2h-2v-2l-6-1-14-2-1 5v17l-2-1-4-13-1-8-22 1-2 18-6 3-6 1h-12l-14-4-8-4-2-2v-3l-37 9-17 6-5 1-2 4-3 1-1 4h-2v3h-2l-1 5-5 10-3 7-5 23-3 28-5-2-14-8-6-6-1-3v-11l8-16 16-24 4-8 1-4v-10l-5-10-6-10-1-3v-12l4-10 6-8 8-7 16-10 7-8 6-25 9-25 11-26 7-11 7-7 14-8 16-5z" fill="#7533EC"/>
<path transform="translate(307,1106)" d="m0 0h17v27l-1 24h7l1-1 3-50h17l20 4 19 7 13 8 9 8 6 10 2 8v164l-2 9-5 8-5 6-13 9-13 6-16 5-19 3h-38l-21-4-17-6-13-7-11-9-7-11-1-3-1-169 2-9 6-10 10-9 14-8 21-7z" fill="#51557A"/>
<path transform="translate(542,648)" d="m0 0 5 2 35 21 13 8 28 17 15 10 14 8 23 14 9 6 10 5 21 13 15 9 28 17 14 9 11 6 12 8 35 21 13 8 21 13 27 16 24 15 16 9 13 8v2l5 1 18 11 13 8 25 15 21 13 22 13 3 2v2l5 1 11 7 1 1v71l-5-2-79-48-14-9-20-12-21-13-20-12-28-17-18-11-34-20-16-10-17-10-19-12-17-10-32-20-18-11-25-15-17-10-23-14-18-11-5-3v-2l-5-1-18-11-14-9-14-8-26-16-3-1z" fill="#3A3F59"/>
<path transform="translate(692,1492)" d="m0 0h1l3 11 1 7v33l5 1 7 12 4 13v12l-4 13-6 10-9 10-11 9-15 9-21 9-19 6-25 5-25 3h-40l-27-3-24-5-11-4v-3l-5 4 2 9 2 8v11l-3 11-7 13-11 12-12 9-16 9-17 7-19 6-24 5-26 3h-42l-26-3-27-6-21-7-19-9-15-10-10-9-7-8-7-14-2-9v-9l3-12 6-12 5-6 4-3v37l-1 3 2 4 2 2 5 9 9 10 14 10 21 10 23 7 20 4 27 3h29l29-3 23-5 21-7 7-2-1-41-3-1v-43l-12 3-21 3-26 1-22-1-5-1 5-4 17-9 23-1 22-3 19-5 13-5 14-7 8-6h2v-2l5-5h2l2-5 5-10 2-12 8-5 13-7h2l1-2 2 3 1-1h7l4 2-4 3-6 3v2l17 6 8 2h5l7-4 13-7h10l1 1 23 1v-2l4-1h10l-4 3-23 12-1 1h20l24-4 20-6 17-8 11-8 7-6 5-7h2l2-4 14-12h2l1-5h2l2-6 2-4z" fill="#8066F6"/>
<path transform="translate(537,808)" d="m0 0 3 1 1 2v121l4 13 7 12 8 8 84 51 51 31 15 9 13 8 1 2v136l-4 1h-22l-17-3-21-7-20-10-15-10-14-11-15-14-12-12-9-11-10-13-14-21-12-21-11-22-11-28-8-26-5-22-4-31v-37l3-23 6-23 8-19 8-15 10-14z" fill="#E1E1E1"/>
<path transform="translate(436,1374)" d="m0 0 8 16 11 12 8 6v2l6 2 10 6 17 7 19 6 15 3 30 3h26l23-2 28-6 21-7 16-8 8-5 9-7 5-5 8-10 4-9 2-4v49l-4 9-6 8-6 7-1 45-2 8-4 8h-2l-1 5-11 9-6 5-9 11-12 10-17 9-21 7-20 4-8 1h-22l5-4 23-12h-12v2h-23l-1-1h-10l-19 10-1 1-10-1-18-6-3-2 1-3 9-5-3-1h-7-3l-6-12-7-8-9-7v-2l-6-2-11-7-17-7-9-3-2-6v-63l4-11 7-11 5-5z" fill="#8066F6"/>
<path transform="translate(568,598)" d="m0 0 5 2 14 8 13 8 23 14 31 19 56 34 51 31 17 10 21 13 28 17 20 12 39 24 20 12 13 8 20 12 13 8 23 14 10 6 23 14 41 25 10 10 6 11 3 8 1 4v15l-1 6-5-2-28-17-13-8-23-14-15-9-18-11-13-8-15-9-23-14-13-8 8 16 9 15v2l-6-2-19-12-25-15-23-14-18-11-25-15-11-7-17-11-9-5-23-14-15-9-13-8-28-17-11-6-16-10-20-12-16-10-19-12-17-10-16-10-30-18v-42h1v5l5 2 25 15 13 8h2l-8-15-11-19z" fill="#9884FA"/>
<path transform="translate(817,263)" d="m0 0h13l16 8 24 14 22 13 1 5-1 10-1 25 6 2 48 28 26 15 24 14 26 15 48 28 26 15 27 16 16 9 24 14 2 1v-22l2-14 11 6 28 16 29 17 19 11 24 14 26 15 11 8-3 2-25 14-24 14-11 6h-2l-1 2-4-7-7-6-19-11-17-10-19-11-16-10-11-6-14-8-27-16-15-9-11-6-15-9-17-10-35-20-15-9-21-12-13-8-28-16-20-12-62-36-17-10-19-11-39-23-10-6-9-3-12-1v-3l32-17 22-12z" fill="#3A3F59"/>
<path transform="translate(935,1341)" d="m0 0h9l9 3 11 6 10 9 10 15 6 15 5 19 3 25v30l5 2 21 12 22 13 1 1 5 42 1 3 1 12 2 19 1 2 1 14 9 81 9 75v5l-21 12-25 14-12 7h-1v-271l-5-2-8-5-12-6-13-8-5-2v20l1 8-1 2h-6l-5-6-2-4 1-5 1-2h2v-20l-5-2-23-13-20-12-20-11-5-3-7-3v18l2 5-1 5-6 1-5-5-2-5v-5l2-2 2-19-5-2-16-9-14-8 2-3 11-6 13-8 7 1 6 4h3l8-16 8-8 10-5 6-11 9-9zm-18 33-3 6-4 19-1 12 26 15 25 15h3l-4-20-6-16-6-11-9-10-11-7zm-12 3-7 8-5 10-1 6 7 4h2l5-24zm46 8 2 5 6 10 6 15 5 21 2 11 8 5h2v-11l3-9 2 6v18l2 1v-26l-1-4h-4l-5-13-3-12-6-7-14-8z" fill="#8066F6"/>
<path transform="translate(859,912)" d="m0 0 4 1 20 12 56 34 13 8 28 17 4 3 6 11 14 25 12 21 15 26 6 7 3 9 12 21 15 26v120l-3 6-2 2-5-1-10-18-14-24-5-9-46-28-11-7-5-8-1-6v-61l-16-28-14-24-5-8-4-3-1-7-14-24-14-25-9-15-6-11-12-21-9-15z" fill="#9884FA"/>
<path transform="translate(1373,371)" d="m0 0 5 1 28 16 24 14 28 16 8 5v103l-16 9-5-1-13-7 8 14 7 16 4 17v21l-5 10-7 5-9 2h-9l-15-3-17-6-29-14-12-8-9-9-8-13-5-15-1-15 2-10 7-14 10-10 11-7 6-1-2-3v-105zm11 54-5 4-1 3v8l4 11 17 32 2 1 19-11 3-4 1-7-2-9-6-10-7-4-5 1-3 1-6-10-6-5z" fill="#8066F6"/>
<path transform="translate(552,1308)" d="m0 0h41l12 2 17 3 16 5 9 4 11 6v2h3v2h3l10 10 6 9 3 10v9l-3 10-6 9-7 7-13 9-17 8-16 5-13 3-19 2-19 1-22-2-18-3-18-5-16-7-12-7-12-11-1-4h-2l-5-11-1-5v-9l4-11 6-8 8-8 14-9 10-4 9-4 19-5z" fill="#9794FB"/>
<path transform="translate(688,808)" d="m0 0 5 2 14 8 21 13 18 11 3 2 6 11 9 16 13 23 14 24 8 13 9 6 16 10 1 2v23l-1 4 15 26 13 23 12 20 6 11 11 19 10 7 14 8 21 13 20 12 3 3v20l-5-1-16-9-16-10-10-6 10 18 10 17 14 24 6 11 13 22 1 2-5-2-14-9-9-5-16-10-20-12-2-2v-3l-13-23-11-19-13-23-8-14-7-11-30-18-24-15-17-10-23-14-18-11-7-6v-11l1-9 7 3 15 9 21 13 15 9 23 14 15 9-1-4-13-23-15-26-9-16-14-24-9-16-2 3-4-1-22-13-11-7-3-4v-22l3-2 18 11-1-3-15-27-10-17-10-18-10-17z" fill="#9884FA"/>
<path transform="translate(215,1571)" d="m0 0 2 3 6 12 8 10 13 10 16 9 16 6 19 6 15 3 32 3h18l26-2 20-4h3l1 43 3 1v41l-15 6-21 6-22 4-22 2h-29l-27-3-24-5-24-8-19-10-13-10-8-9-5-9-2-5v-49l2 4 4 9 9 12 3 2v2l4 2 10 7 10 6 17 7 24 7 23 4 16 1h32l26-3 26-6-16 1h-40l-23-3-15-3-27-6-15-5-4-2 1-3-3-2h-8l-11-7-10-10 3-3h2l-3-5-6 1-3-7-1-4v-10l4-11 1-1v-24z" fill="#8066F6"/>
<path transform="translate(1586,589)" d="m0 0h17l15 3 16 8 9 8 7 11 4 9 5 18 1 6v18h-3l-1 2-4-3-3-1-12-1 1-5h7l-4-9-1-4v-9l-15 9-15 6-11 2h-16l-11-2-5 6-5 12h-20l-3 1-2 4v11l5 10 6 5 4 1-1-15 2-13h8v11l4 15 3 12 1 9v12l-3 14-5 10-3 3-1 4-37 9-17 6-5 1-2 4-3 1-1 4h-2v3h-2l-1 5-5 10-3 7-5 23-3 28-5-2-14-8-6-6-1-3v-11l8-16 16-24 4-8 1-4v-10l-5-10-6-10-1-3v-12l4-10 6-8 8-7 16-10 7-8 6-25 9-25 11-26 7-11 7-7 14-8 16-5z" fill="#262B3E"/>
<path transform="translate(1707,1326)" d="m0 0h2l-1 23-11 84-13 109-11 97-2 9-3 2-16 1-13-3-1-1-2-20-3-70-1-38v-78l2-42 3-26 3-16 1-30 12 1 3 1h40z" fill="#FBB390"/>
<path transform="translate(1637,1637)" d="m0 0h1l1 10 13 3 16-1 2-1 2-5 14 12 6 10 8 4 24 5 25 6 19 7 10 6 6 7v7l-7 8-16 8-13 5-12 1-10 3-14 3-9 2-43 4-18 1h-61l-34-2-35-4-31-6-20-6-12-5-8-6-5-6v-7l7-8 16-8 19-6 12-3h9l1 20 8 7 10 4 9 2 29 15 15 6 9 2h13l8-2 8-4 4-5v-10l-2-3v-3h-2l-7-8-11-10-14-8-7 1-5 6-1 2h-4l1-6 5-6 2-1h-6l-7 8-4-1 2-5 4-5 5-2v-2l-7 2-5 5-2 3-4-1 1-5 7-7 2-1h8l8 2h56l2 1 1-18 3-6zm72 41 5 4h2l-2-4z" fill="#E0E0E1"/>
<path transform="translate(796,803)" d="m0 0 5 2 14 8 15 9 13 8 21 13 27 16 24 15 16 9 13 8v2l5 1 18 11 13 8 25 15 21 13 22 13 3 2v2l5 1 11 7 1 1v71l-5-2-79-48-14-9-20-12-21-13-20-12-28-17-18-11-9-5-1-5-15-26-14-25-11-19-8-14-9-16z" fill="#60657A"/>
<path transform="translate(1098,922)" d="m0 0 5 4 9 12 5 11 2 9-1 186-1 140-3 8-5 4-13 2h-20l-10-4-22-13-175-105-32-19-9-6-11-6-15-9-14-9-11-6-23-14-3-2v-23l10 5 16 10 15 9 51 31 26 16 20 12 28 17 16 10 17 10 39 24 27 16 26 16 9 4h10l27-3 6-5 2-6 1-101z" fill="#E0E0E1"/>
<path transform="translate(709,1374)" d="m0 0h1v49l-4 9-6 8-6 7-1 45-2 8-4 8h-2l-1 5-11 9-6 5-9 11-12 10-17 9-21 7-20 4-8 1h-22l5-4 23-12h-12v2h-23l-1-1h-10l-19 10-1 1-10-1-18-6-3-2 1-3 9-5-3-1h-7-3l-6-12-7-8-9-7v-2l-6-2-11-7-17-7-9-3-2-6v-47l8 16 5 7 3 2v2l4 2 8 6 3 1 4 4 19 9 21 7 19 4 14 2 14 1h34l23-3 23-5 18-6 7-3h3v-2l14-7 13-10 7-8 6-9 2-7-6 5-11 6-9 4h-2v-44l18-10 10-8 5-5 8-10 4-9z" fill="#8066F6"/>
<path transform="translate(692,1492)" d="m0 0h1l3 11 1 7v33l5 1 7 12 4 13v12l-4 13-6 10-9 10-11 9-15 9-21 9-19 6-25 5-25 3h-40l-27-3-24-5-11-4-1-4 8-9 5-12 29 6 15 2 15 1h27l28-3 24-5 18-6 18-8 12-8 10-9 7-9 4-9v-45l-5 10-8 10-10 9-14 9-15 7-10 3-9 3-22 5-26 3h-32l-16-1-23-4-15-4-2-2-8 16-5 5-10 9-14 9-20 9-20 6-14 3-21 3-26 1-22-1-5-1 5-4 17-9 23-1 22-3 19-5 13-5 14-7 8-6h2v-2l5-5h2l2-5 5-10 2-12 8-5 13-7h2l1-2 2 3 1-1h7l4 2-4 3-6 3v2l17 6 8 2h5l7-4 13-7h10l1 1 23 1v-2l4-1h10l-4 3-23 12-1 1h20l24-4 20-6 17-8 11-8 7-6 5-7h2l2-4 14-12h2l1-5h2l2-6 2-4z" fill="#9894FB"/>
<path transform="translate(810,1595)" d="m0 0h7l2 2-1 14-5 43v5l24 14 25 14 19 11 21 12 26 15 24 14 16 9 24 14 25 14 10-5 24-14 24-13-1-14-4-34v-5l5 1 14 12 10 10 11 14 7 10 6 14 1 5v11l-3 8-7 8-14 7-13 3-10 1h-18l-21-2-22-4-25-6-36-12-27-11-24-11-22-12-19-11-15-10-18-13-13-11-12-11-8-8-11-14-8-14-4-12v-13l5-10 8-7 8-4z" fill="#E1E1E1"/>
<path transform="translate(580,388)" d="m0 0 4 1 24 14 23 13 24 14 18 10v103l-10 6-7 4-5-1-15-9-21-12v13l-8 4-15-30-10-6-17-10-1-5v-88l1-12 8-5z" fill="#8066F6"/>
<path transform="translate(307,1106)" d="m0 0h17v27l-1 24h7l1-1 3-50h17l20 4 19 7 13 8 9 8 6 10 1 3v15l-5 10-6 7-10 7-16 8-17 5-8 2-21 2h-16l-24-3-20-6-16-8-8-6-5-5-6-8-3-11 2-12 6-10 10-9 14-8 21-7z" fill="#252A3D"/>
<path transform="translate(339,1489)" d="m0 0h25l23 2 25 5 20 6 15 6 15 9 8 7 7 6 7 10 1 6-22 12-2-1-4-12-7-9-7-6v-2l-4-1v-2l-6-2-11-6-29-9-19-3-16-1h-12l-24 2-16 3-24 8-17 9-13 11-7 11-2 7v13l4 9 6 9 10 9 8 5 17 8 20 6 20 3 17 2-1 2-16 8-5 3-18-2-17-4-23-8-16-8-14-10-8-7-7-10-5-10v23l-4 8-1 4v10l3 10 6-1 3 4v2l-4 3 9 9 11 7h8l4 4h-2v2l9 3 18 5 19 4 20 4 18 2h40l8-1h10l-2 2-26 6-26 3h-32l-16-1-23-4-18-5-25-10-14-9-8-6v-2l-4-2-11-15-3-10v-16l4-11 7-11 9-9 10-7h2l1-16 5-12 8-11 10-9 18-11 16-7 23-7 22-4z" fill="#9995FB"/>
<path transform="translate(1493,1193)" d="m0 0h7l5 6 2 1 9 19 4 11 2 8 2 17v9l5 2 16 9 24 14 11 6 3 3 14 119 12 104v8l-22 12-21 12-10 5v-247l-6-2-15-9-17-10-2-2-1-34-4-22-6-16-6-11-6-7z" fill="#7532ED"/>
<path transform="translate(723,1303)" d="m0 0h1l1 61 4 11 9 10 45 26 21 12 26 15 7 5-1 15-7 59-1 6-7-3-16-10-31-21-18-13-13-10-16-13-14-12-5-5-2-6 3-7 1-5v-56l-3-12-6-10-8-10-15-11-8-4 2-1 1-3 12-4 18-3z" fill="#E1E1E1"/>
<path transform="translate(875,1521)" d="m0 0h13l11 3 11 5 12 7 14 12 8 8 10 13 9 15 6 13 5 17 1 6v14l-3 11-6 9-10 6-3 1h-18l-15-5-15-9-11-9-8-7-9-11-10-14-8-16-5-13-3-14v-15l3-11 4-6 5-5 7-4z" fill="#8066F6"/>
<path transform="translate(1850,607)" d="m0 0 15 8 1 1v105l-23 13-14 30-5-1-3-2v-14l-28 16-15 9-5-1-13-8-1-1v-102l9-6 28-16 52-30zm-25 49-8 5-1 8-9 9-4 8-1 3v9l4 4 9-1 11-4-3 5-9 5-9 3-3 10v4l10-2 5-2 1 6 9-5 1-9 5-5 6-8 2-5v-10l-2-3-6-1-16 5 3-5 7-4 8-2 4-13v-2l-10 2-3 1v-6z" fill="#8167F5"/>
<path transform="translate(458,500)" d="m0 0h14l10 3 10 6 7 8 7 12 5 15 3 20v19l-2 15-4 15-7 14-4 5-6 4-3 1h-16l-11-4-10-6-12-12-10-14-9-15-5-11-3-14v-14l3-14 7-14 10-10 12-6z" fill="#E1E1E1"/>
<path transform="translate(724,1065)" d="m0 0 11 6 13 8 2 1 1 278 3 5 9 6 25 14 24 14 23 13 5 3v9l-2 18-1 2-5-2-25-14-24-14-23-13-22-13-8-8-5-10-1-4z" fill="#51557A"/>
<path transform="translate(1361,486)" d="m0 0 5 2 21 12 13 28v3l6-4h2v-14l12 6 11 7 8 13 8 18 4 17v21l-5 10-7 5-9 2h-9l-15-3-17-6-29-14-12-8-9-9-8-13-5-15-1-15 2-10 7-14 10-10 11-7z" fill="#E1E1E1"/>
<path transform="translate(1638,640)" d="m0 0h2l2 13 4 10h-8l-1 4h12l6 3h2 3v-9h1l1 10 3 5v9l-4 11-5 6-3 3-7 19-8 13-10 10-10 5-3 1h-7l-1 9-2 14-6 3-6 1h-12l-14-4-8-4-2-2v-7l6-8 4-12 1-7v-12l-2-14-5-17-1-5v-9l1-2h-8l-1 16 1 13-7-2-7-8-3-7v-11l3-5 8-1 15 1 1-5 5-10 5-4 10 2h16l14-3 16-7z" fill="#FBB28F"/>
<path transform="translate(408,947)" d="m0 0h13l12 4 12 7 12 12 8 13 6 18 1 6v31l-4 20-3 8-9-1-28-8-19-7-21-10-14-10-7-8-4-8-2-12 2-9 3-7 5-4 10-5 13-2-1-5 3-12 4-6 5-4z" fill="#8066F6"/>
<path transform="translate(223,954)" d="m0 0h17l8 4 5 6 3 7 1 5 18 8 7 4 2 5 1 3v13l-4 12-7 10-10 9-15 8-13 4-20 3h-20l-15-3-14-7-5-5 1-7 8-20 11-21 8-12 9-11 10-9 10-5z" fill="#8066F6"/>
<path transform="translate(346,1503)" d="m0 0h12l23 2 15 3 20 6 12 5 9 5 2 1v2l4 1 5 5 8 9 4 8 2 7-1 13-6 12-2 3h-2l-2 4-3 1v2l-14 9-14 7-19 6-15 3-16 2h-19l3-3 16-8 27-14 53-28 11-6 1-1-3-9-6-8-16 8-19 10-10 5-4-1-8-5-10-3-8-2 2-2 3-1-1-1h-9l-4 2h-11l-12-2-2-1 1-4 6-1h20l16 3h4l8-11 4 1-3 3v2l28-15h2l-3-3-7 1-17 9-21-4-13-1-1-1v-6l9-6 6-3h2v-2h-11l-14 8-14 1-2 7-8 3-17 4-10 6-3 4-2 4-22 12-16 8-17 9-2-1-3-8v-13l4-11 8-10 11-9 17-9 24-8 24-4z" fill="#7535ED"/>
<path transform="translate(552,1308)" d="m0 0h41l12 2 17 3 16 5 9 4 11 6v2h3v2h3l10 10 6 9 3 10v9l-3 10-6 9-7 7-13 9-17 8-16 5-13 3-19 2h-18l3-3 16-8 22-12 16-8 12-7 16-8 15-8 10-5-2-8-6-9-5 1-17 9-26 13-6-5-10-4-11-3 4-4h-10l-3 2h-13l-12-2-2-3 2-2 4-1h20l18 3 5-1 6-8h2v-2h3v2h-2l-1 4 29-15h2v-2l-8-1-20 10-14-3-20-2v-8l14-8h2v-2l-12 1-13 7h-15v8l-7 3-15 3-10 4-5 5-3 6-22 11-22 12-13 6-3-7-1-5v-9l4-11 6-8 8-8 14-9 10-4 9-4 19-5z" fill="#7535ED"/>
<path transform="translate(923,881)" d="m0 0 9 3 12 7v2l5 1 18 11 13 8 25 15 21 13 22 13 3 2v2l5 1 11 7 1 1v71l-5-2-79-48-7-11-9-16-28-49-9-15-6-11z" fill="#3A3F5A"/>
<path transform="translate(1637,1637)" d="m0 0h1l1 10 13 3 16-1 2-1 2-5 14 12 6 10 8 4 24 5 25 6 19 7 10 6 6 7v7l-7 8-16 8-13 5-12 1-10 3h-20l-15-5-20-10-12-7-6-2-10-2-9-5-5-5-1-12v-25l1-11 3-6zm72 41 5 4h2l-2-4z" fill="#7635ED"/>
<path transform="translate(688,737)" d="m0 0 6 2 21 13 15 9 28 17 14 9 11 6 12 8 36 63 9 16 14 24 1 4-6-2-13-8-15-9-36-22-30-18-7-5-16-28-9-15-6-11-9-16-8-14-10-17z" fill="#3A3F59"/>
<path transform="translate(935,1350)" d="m0 0h9l10 4 11 8 9 12 5 10 6 19 3 18v6l-4 2-5-11-4-16-5-6-14-8-5-3 8 13 6 14 5 19 3 17 2 33 1 2h-2v20l1 8-1 2h-6l-5-6-2-4 1-5 1-2h2v-20l-5-2-23-13-20-12-20-11-5-3-7-3v18l2 5-1 5-6 1-5-5-2-5v-5l2-2 2-19-5-2-16-9-14-8 2-3 11-6 13-8 7 1 6 4h3l8-16 8-8 11-5h9l6-9 6-5zm-18 24-3 6-4 19-1 12 26 15 25 15h3l-4-20-6-16-6-11-9-10-11-7zm-12 3-7 8-5 10-1 6 7 4h2l5-24z" fill="#8269F6"/>
<path transform="translate(763,745)" d="m0 0 5 2 19 11 26 16 15 9 26 16 25 15 9 5 9 6 22 13 11 7 23 14 15 9 23 14 20 12 26 16 20 12 12 7v8l-1 6-5-2-28-17-13-8-23-14-15-9-18-11-13-8-15-9-23-14-13-8 8 16 9 15v2l-6-2-19-12-25-15-23-14-18-11-25-15-9-6-11-20-9-15-8-14z" fill="#9884FA"/>
<path transform="translate(181,1630)" d="m0 0h1v37l-1 3 2 4 2 2 5 9 9 10 14 10 21 10 23 7 20 4 27 3h29l29-3 23-5 21-7 19-9 10-7 10-9 7-10 4-13 1-13 12-8 3 4 3 12v11l-3 11-7 13-11 12-12 9-16 9-17 7-19 6-24 5-26 3h-42l-26-3-27-6-21-7-19-9-15-10-10-9-7-8-7-14-2-9v-9l3-12 6-12 5-6z" fill="#E1E1E1"/>
<path transform="translate(697,1543)" d="m0 0 5 1 7 12 4 13v12l-4 13-6 10-9 10-11 9-15 9-21 9-19 6-25 5-25 3h-40l-27-3-24-5-11-4-1-4 8-9 5-12 29 6 15 2 15 1h27l28-3 24-5 18-6 18-8 12-8 10-9 7-9 4-9 1-5z" fill="#E1E1E1"/>
<path transform="translate(238,1290)" d="m0 0h1l1 31 5 10 5 6 13 9 13 6 16 5 17 3h38l19-3 21-7 13-7 10-8 6-9 2-5 2-9 7 1 16 8 6 5v5l-4 8-3 5h-2l-2 5-5 12-10 5-25 7-26 4-25 2h-37l-25-2-25-4-19-5-16-6-12-7-7-7-3-6v-7l4-7 9-8 14-7 8-1z" fill="#E0E0E1"/>
<path transform="translate(435,1403)" d="m0 0h1l1 18 4 11 6 8 3 12 8-2 4 3v2l-6 3h-2l7 8 12 9 5 1 14-7 6 1 3 2-14 8h-2v2l9 3 18 5 6-1 17-9 1-1 42 2-4 4-18 9h20l20-3 19-5 17-7 12-7h4v-2l16-6 17-9 6-4 5-3-3 10-9 12-10 9-14 9-4 2h-3v2l-15 6-17 5-19 4-23 3h-34l-21-2-22-4-20-6-24-11-4-3v-2l-5-1-10-8-6-7-6-9-4-11v-16l4-11 7-11z" fill="#9995FB"/>
<path transform="translate(582,881)" d="m0 0 9 5 20 12 28 17 46 28 14 9 4 5v43l-1 1h-5l-46-28-13-8-20-12-23-14-14-9-3-9 1-39z" fill="#9985FB"/>
<path transform="translate(182,1622)" d="m0 0 2 4 4 9 9 12 3 2v2l4 2 10 7 10 6 17 7 24 7 23 4 30 2v43h15v1h-29l-27-3-24-5-24-8-19-10-13-10-8-9-5-9-2-5z" fill="#8066F6"/>
<path transform="translate(406,1627)" d="m0 0h3l1 43 3 1v41l-15 6-21 6-22 4-9 1h-28v-43l30-2 24-4 16-4h-19v-43l21-3z" fill="#8066F6"/>
<path transform="translate(1506,1638)" d="m0 0 2 1v12l11 3 11-1 7-1 2-13 7 6 10 9 5 9-9 2-7 8v3h3l4-6 4-3h6v2l-7 5-3 5v2l4-1 6-7h8l-5 4-4 6-1 4h4l2-5 6-5 7 1 12 7 13 12 5 5v2h2l3 6v10l-6 7-9 4-6 1h-13l-12-3-16-7-16-8-11-6-10-2-10-5-6-6-1-26 1-21 4-8z" fill="#7635ED"/>
<path transform="translate(968,1094)" d="m0 0h5l15 9 28 17 16 10 4 6 1 3v62l-1 7-4 2-7-3-20-12-23-14-11-7-5-8-1-6 1-64z" fill="#AC9CFD"/>
<path transform="translate(307,1106)" d="m0 0h17v14l-23 3-19 5-14 6-10 7-6 7-1 2v8l8 9 13 8 20 7 16 3 12 1h21l21-3 16-5 10-4 12-8 5-6h2v-10l-4-6-7-6-12-7-18-6-14-3-18-2v-14h17l20 4 19 7 13 8 9 8 6 10 1 3v15l-5 10-6 7-10 7-16 8-17 5-8 2-21 2h-16l-24-3-20-6-16-8-8-6-5-5-6-8-3-11 2-12 6-10 10-9 14-8 21-7z" fill="#3B405A"/>
<path transform="translate(863,777)" d="m0 0 5 2 18 11 20 12 13 8 20 12 13 8 23 14 10 6 23 14 41 25 10 10 6 11 3 8 1 4v7l-6-2-21-13-20-12-21-13-22-13-13-8-23-14-15-9-24-15-15-9-5-6-10-18-11-19z" fill="#8066F6"/>
<path transform="translate(840,1074)" d="m0 0 10 5 16 10 20 12 13 8-11-20-5-9v-2l5 2 17 10 21 13 20 12 3 3v20l-5-1-16-9-16-10-10-6 10 18 10 17 14 24 6 11 13 22 1 2-5-2-14-9-9-5-16-10-20-12-2-2v-3l-13-23-11-19-13-23-8-14-5-8z" fill="#9985FB"/>
<path transform="translate(1432,1334)" d="m0 0 8 1 8 6 9 12 5 10v3h2v-2l7-4h7l7 3 7 6 6 9 5 14 1 4v15l-4 8-8 6-23 13-5 3-4-1-17-32-13-24-6-12-3-11v-14l4-9 4-3z" fill="#7532ED"/>
<path transform="translate(824,601)" d="m0 0 7 1 21 12 15 9 11 6 24 14 23 13 15 9 18 10 10 6 52 30 24 14 28 16 24 14 15 9 1 2v7l-5 4-7-1-26-15-16-9-22-13-26-15-21-12-13-8-11-6-45-26-28-16-26-15-38-22-7-4-2-3v-6z" fill="#E1E1E1"/>
<path transform="translate(824,1243)" d="m0 0h6l41 24 18 10 19 11 24 14 15 9 11 6 24 14 21 12 19 11 21 12 45 26 22 13 2 3v6l-3 4-5 1-16-8-24-14-52-30-24-14-16-9-22-13-23-13-17-10-26-15-19-11-28-16-16-10-2-4 1-6z" fill="#E1E1E1"/>
<path transform="translate(824,548)" d="m0 0h6l28 16 38 22 16 9 22 13 26 15 23 13 27 16 23 13 24 14 15 9 11 6 21 12 8 6v7l-4 4h-7l-21-12-52-30-24-14-16-9-17-10-28-16-29-17-26-15-23-13-24-14-20-12-2-3 1-7z" fill="#E1E1E1"/>
<path transform="translate(826,1190)" d="m0 0 6 1 25 14 27 16 23 13 24 14 28 16 19 11 14 8 22 13 23 13 24 14 14 8 19 11 17 10 1 2v7l-4 4h-7l-19-11-17-10-14-8-24-14-16-9-19-11-24-14-21-12-24-14-23-13-41-24-18-10-9-6-9-5-3-4 1-7z" fill="#E1E1E1"/>
<path transform="translate(824,495)" d="m0 0h7l35 20 22 13 21 12 24 14 23 13 41 24 18 10 17 10 19 11 21 12 24 14 14 8 2 3v7l-5 4-7-1-16-9-10-6-21-12-71-41-14-8-17-10-26-15-28-16-19-11-14-8-22-13-19-11-3-4 1-7z" fill="#E1E1E1"/>
<path transform="translate(419,1446)" d="m0 0 8 16 5 7 3 2v2l4 2 8 6 3 1 4 4 19 9 21 7 19 4 14 2 13 1-3 1v43l3 1-19 10-1 1-10-1-18-6-3-2 1-3 9-5-3-1h-7-3l-6-12-7-8-9-7v-2l-6-2-11-7-17-7-9-3-2-6z" fill="#8066F6"/>
<path transform="translate(464,690)" d="m0 0 11 1 8 4 5 4 6 9 3 9 1 11-3 15-6 16-7 13-8 9-5 2-9-1-8-7-6-8-7-15-4-18v-18l3-10 6-9 9-5z" fill="#E1E1E1"/>
<path transform="translate(624,698)" d="m0 0 5 2 13 8 28 17 14 9 5 2 1 6 8 13 6 10 6 11 5 9 8 13 6 11 7 12 6 11 6 10-1 2-17-11-45-27-7-12-5-10-20-35-7-11-6-11-10-18z" fill="#606579"/>
<path transform="translate(1845,801)" d="m0 0h14l6 4-1 6-7 12-5 20-10 21-8 12-7 8-4 2h-16l-7-3-5-6h-10l-6-4v-6l17-29 17-28 3-5 7-2z" fill="#F9B292"/>
<path transform="translate(344,887)" d="m0 0 4 1-2 15-10 25-5 18-3 17-1 10v19l2 11 6-8 10-9 15-8 15-5 10-2h9v4l-13 3-10 5-6 4-14 7-11 10-6 10-3 9 1 23 1 22v37h7v1h-6v14l-2 36-2 2-7-1-1-7 2-44h-6v-1h6l-1-38-3-16-6-15-7-12-11-13-11-9-2-9-2-4 4 1 11 8 11 10 10 13 3 5-1-17-5-37-7-34-8-27-4-11 1-3 7-1 3 5 8 25 6 23 6-23 6-16 8-17z" fill="#611EBF"/>
<path transform="translate(1504,1530)" d="m0 0 6 2 11 7 11 6 17 10 1 5-9 73-4 19-13 3-8-1-8-3-2-19-2-54z" fill="#FBB38F"/>
<path transform="translate(1638,640)" d="m0 0h2l2 13 4 10h-8l-1 4h12l6 3h2 3v-9h1l1 10 3 5v9l-4 11-5 6-8 3h-9l-8-4-6-7-1-2-1-13-3-2h-6l-3 2-1 11-6 8-8 4h-10l-6-3-6-6-2-5-1-8-10-2-8-1-1 16 1 13-7-2-7-8-3-7v-11l3-5 8-1 15 1 1-5 5-10 5-4 10 2h16l14-3 16-7z" fill="#F3F2F3"/>
<path transform="translate(984,988)" d="m0 0 5 2 15 9 28 17 23 14 13 8v146h-1l-1-51-13-23-14-24-4-10-5-6-16-28-13-23-12-21-5-8z" fill="#7F65F5"/>
<path transform="translate(901,842)" d="m0 0 11 6 18 11 20 12 16 10 20 12 23 14 15 9 16 10 20 12 8 5v-6h1v30l-5-2-10-6-3-1v-2l-5-2-15-9-51-31-15-9-18-11-3-1v-2l-5-2-18-11-3-2-2-5-14-25z" fill="#7F65F5"/>
<path transform="translate(485,1544)" d="m0 0 3 3 1-1h7l4 2-4 3-6 3v2l17 6 8 2-2 2-16 8h-2l-1 2-5-2-1-1-8 16-5 5-10 9-14 9-20 9-20 6-14 3-21 3-26 1-22-1-5-1 5-4 17-9 23-1 22-3 19-5 13-5 14-7 8-6h2v-2l5-5h2l2-5 5-10 2-12 8-5 13-7h2z" fill="#9894FB"/>
<path transform="translate(889,329)" d="m0 0h1l1 8 18 10 27 16 23 13 27 16 23 13 24 14 29 17 52 30 17 10 26 15 7 4v-13l5 2 4 4 1 8-3 6-3 2h-10l-23-13-21-12-24-14-25-14-24-14-23-13-42-24-26-15-23-13-24-14-16-9-4-4-1-7 4-7z" fill="#262B3E"/>
<path transform="translate(935,1341)" d="m0 0h9l9 3 11 6 10 9 10 15 6 15 5 19 3 25v30l5 2 21 12 20 12v3l-10 6-15 8-6-1-9-6-12-6-13-8-5-4-2-33 6 2 4 2-1-3v-8l3-11 3 4 1 4v-7l-3-22-4-16-5-13-7-12-6-7-10-7-9-3h-9l-6 3-6 7-3 5h-9l1-5 5-8 8-8z" fill="#7636ED"/>
<path transform="translate(1448,1189)" d="m0 0 2 2 2 7 4 3h-2l-3 9-2 9 27 16 21 12 9 6 1 2 1 9v20l-11-6-23-13-16-10-10-5-12-7v18l1 7-1 2-7-1-4-5v-8h2v-18l-30-18 5-4 9-6 12-6 12 7 3-9 6-9z" fill="#5D17BC"/>
<path transform="translate(580,388)" d="m0 0 4 1 24 14 23 13 24 14 18 10v103l-10 6-6 3h-2v-102l-23-13-17-10-21-12-17-10-11-6 2-4 5-3z" fill="#7738EE"/>
<path transform="translate(669,1346)" d="m0 0 5 1 6 9 2 8-5 3-42 22-20 11-14 7-19 10-10 5 1 2-25-2-18-3-18-5-10-4-1-2 19-10h3v-2l3-2-2-1v-2l12 1 10 2 19 2v7h21l1-8 18-3 13-5 3-1 4-8v-8l15-9 16-8z" fill="#9884FA"/>
<path transform="translate(450,1541)" d="m0 0 5 4 5 9 1 6-23 12-16 9-16 8-46 24-11 6h-11l-24-3-16-4-15-5-3-3 19-10 5-3h2v-2h-3v-2l10 1 28 3 2 1 1 7 22 1v-9l17-3 16-7 4-8 1-5-1-3 16-8z" fill="#9883FA"/>
<path transform="translate(1373,371)" d="m0 0 5 1 28 16 24 14 28 16 8 5v103l-16 9-2-1 1-46v-55l-14-8-10-6-35-20-26-15-4-4 4-4z" fill="#7635ED"/>
<path transform="translate(705,1350)" d="m0 0 2 1 3 10 1 1v56h-1l-1-40-6 12-8 10-10 8-9 6-16 8-16 6-16 4-19 4-23 2h-26l-13-1-2-2 20-11 5-1 30-2 16-3 18-5 16-7 12-7 12-11 6-10 3-16 18-10z" fill="#9894FB"/>
<path transform="translate(568,598)" d="m0 0 5 2 14 8 13 8 23 14 6 4 5 10 12 21 14 24 4 8-5-2-14-8-39-24-7-4-20-12-19-12-14-8-3-2v12h-1v-31h1v5l5 2 25 15 13 8h2l-8-15-11-19z" fill="#9884FA"/>
<path transform="translate(1850,607)" d="m0 0 15 8v3l-21 12-52 30-15 9h-2l1 73v29l-4-1-12-7-1-1v-102l9-6 28-16 52-30z" fill="#7634ED"/>
<path transform="translate(488,1570)" d="m0 0 2 4 25 6 13 2 30 2v43h16v1h-27l-24-2-26-5-8-2-6 12h-1l-1-46 6-12z" fill="#8066F6"/>
<path transform="translate(557,1313)" d="m0 0h32l11 1v1l-10 2-11 6h-15v8l-7 3-15 3-10 4-5 5-3 6-22 11-22 12-13 6-3-7-1-5v-9l3-3 7-11 7-7 11-7 16-8 15-5 18-4z" fill="#8066F6"/>
<path transform="translate(334,1509)" d="m0 0h36l2 2-14 8-14 1-2 7-8 3-17 4-10 6-3 4-2 4-22 12-16 8-17 9-2-1-3-8v-13l3-3 5-8 10-10 13-8 9-5 22-7 21-4z" fill="#7F65F5"/>
<path transform="translate(629,635)" d="m0 0 5 2 20 12 56 34 23 14 7 4v3l14 25 7 12-1 2-16-10-20-12-26-16-40-24-6-4-8-14-13-23z" fill="#8066F6"/>
<path transform="translate(499,1427)" d="m0 0 7 1 9 3 15 3 27 3v43l-4 1-17-1-16 9-4 2-8-1-16-5-7-3v-2l15-8-1-1z" fill="#8066F6"/>
<path transform="translate(691,1448)" d="m0 0 1 2-4 9-8 11-10 9-14 9-4 2h-3v2l-15 6-17 5-19 4-23 3h-34l-14-1 3-3 17-9h2v-2h-11l-21-3-1-2 19-10 1-1 42 2-4 4-18 9h20l20-3 19-5 17-7 12-7h4v-2l16-6 17-9 6-4z" fill="#9794FB"/>
<path transform="translate(299,1628)" d="m0 0 11 2 32 3h27v43l3 1h-40l-23-3-9-2z" fill="#8066F6"/>
<path transform="translate(909,1375)" d="m0 0h6l-1 9-3 15-2 12 5 2 26 15 22 13 2 7 1 11v17l-5-2-23-13-20-12-20-11-5-3-2-1v-2l-4-1v-8l4-19 1-3 4 1 6 3 2-15 3-11 1-3z" fill="#7534ED"/>
<path transform="translate(594,441)" d="m0 0 11 2 11 6 8 7 9 12 6 13 1 4v14l-4 7-6 3h-8l-11-4-11-8-8-9-8-14-3-10v-12l3-6 5-4z" fill="#F7F7F7"/>
<path transform="translate(406,1627)" d="m0 0h3l1 43 3 1v41l-15 6-7 1-1-40 1-4-11 1h-11v-43l21-3z" fill="#8066F6"/>
<path transform="translate(709,1374)" d="m0 0h1v49l-4 9-6 8-6 7-1 45-2 8-4 8h-2v3l-3 1v-46l7-10 2-7-6 5-11 6-9 4h-2v-44l18-10 10-8 5-5 8-10 4-9z" fill="#8066F5"/>
<path transform="translate(1455,1149)" d="m0 0 15 1h20l10 14 4 7 1-5h1l1 20-3 5-2 2h-9l1 6-1 6h-2v5h-5l-4-4-7 1-5-4v-2h-2v2l-6-1-3-4-2 2-5-1-2-3-2-7v-10l5-23z" fill="#FAB391"/>
<path transform="translate(1659,697)" d="m0 0h1l-1 19-2 15v15l4 10 9 10 15 14 9 10 5 10 2 8v16l-4 10-5 6-4 1-6-17v-3l-2-1-9-27-5-14v-3l-2-1-4-10-1-3h-2v-2l-6-1-14-2-1 5v17l-2-1-4-13-1-8-22 1 1-5 10-2 10-5 10-10 8-14 7-19 5-4z" fill="#292D42"/>
<path transform="translate(666,699)" d="m0 0 14 8 16 10 40 24 18 11 13 8 8 6 10 17 9 16h-3l-16-10-9-5-23-14-15-9-13-8-28-17-3-2-6-12-12-21z" fill="#7F65F5"/>
<path transform="translate(1685,1664)" d="m0 0h6l6 4 16 4 29 6 24 8 11 6 7 8v7l-7 8-16 8-13 5h-11l5-5 1-3v-9l-5-8-6-7-11-9-6-4-1-4h-11l-6 5-3 4h-3v-5l6-7 2-1h-6l-5 5-2 3h-4l1-5 6-7 3-2-7 1-5 6-1 2h-4l1-6 4-5z" fill="#E0E0E1"/>
<path transform="translate(267,1681)" d="m0 0 21 3 30 2v43h15v1h-29l-27-3-11-2z" fill="#8066F6"/>
<path transform="translate(966,1101)" d="m0 0 4 5 6 10 6 11 12 21 13 23 11 19 10 17h-3l-20-12-23-14-11-7-5-8-1-6z" fill="#9885FB"/>
<path transform="translate(419,1446)" d="m0 0 8 16 5 7 3 2v2l4 2 8 6 3 1 4 4 19 9 13 5v44l-4-5-4-6-5-6-9-7v-2l-6-2-11-7-17-7-9-3-2-6z" fill="#8065F5"/>
<path transform="translate(1493,1193)" d="m0 0h7l5 6 2 1 9 19 4 11 2 8 2 17v9l5 2 16 9 24 14 11 6 2 3-24 13-2 1-16-9-22-13-2-2-1-34-4-22-6-16-6-11-6-7z" fill="#5D17BC"/>
<path transform="translate(990,1390)" d="m0 0 5 2 49 28 19 11 48 28 1 2v7l-4 4h-6l-22-12-13-8-56-32-16-10-5-18z" fill="#E1E1E1"/>
<path transform="translate(460,1557)" d="m0 0h2l-1 13-6 12-2 3h-2l-2 4-3 1v2l-14 9-14 7-19 6-15 3-16 2h-19l3-3 16-8 27-14 53-28 11-6z" fill="#8066F6"/>
<path transform="translate(681,1361)" d="m0 0h2v9l-3 10-6 9-7 7-13 9-17 8-16 5-13 3-19 2h-18l3-3 16-8 22-12 16-8 12-7 16-8 15-8 10-5z" fill="#8066F6"/>
<path transform="translate(1845,801)" d="m0 0h14l6 4-1 6-6 11h-2v-2l-5 3-4 5 1-12-4 1-7 11-3 4v-14l-5 5-5 11-2 3-2-7-3-1-3 11-5 15-10 11-5 10-2 1h-7l-6-4v-6l17-29 17-28 3-5 7-2z" fill="#52567A"/>
<path transform="translate(399,1494)" d="m0 0 9 1 24 7 15 6 15 9 8 7 7 6 7 10 1 6-22 12-2-1-4-12-7-9-7-6v-2l-4-1v-2l-6-2-11-6-29-9-10-2 4-4 12-6z" fill="#9793FB"/>
<path transform="translate(619,1298)" d="m0 0 9 1 15 4 19 7 16 8 12 9 5 5 8 9 6 12 1 8-2-4-2-6-16 8-5 3-3-1-3-10-6-9-2-4-4-2-3-2v-2h-3v-2h-3v-2l-6-2-7-4-13-5-14-4-13-2-2-2 14-7 3-2z" fill="#9894FB"/>
<path transform="translate(238,1654)" d="m0 0 5 1 20 8 34 8 26 4 9 1h40l8-1h10l-2 2-26 6-26 3h-32l-16-1-23-4-18-5-25-10-1-3z" fill="#9794FB"/>
<path transform="translate(524,1358)" d="m0 0h2l4 5 10 4 8 2 33 4 7 3v2l-8 2h-16l-6-1 4-3-2-1h-8l-4 2-14-1-10 11-2 4-22 11-4 3-6-1-12-9-7-7v-2l27-14z" fill="#7F65F5"/>
<path transform="translate(303,1553)" d="m0 0 3 3v2l5 2 12 4 11 2 20 2 12 3v3l-9 2h-11l-9-1 4-4h-11l-4 2-13-2-11 13-4 4-25 13-5-2-11-8-7-7 1-3 31-16 19-10z" fill="#7F65F5"/>
<path transform="translate(249,1582)" d="m0 0 5 5 9 8 8 5 17 8 20 6 20 3 17 2-1 2-16 8-5 3-18-2-17-4-23-8-16-8-14-10-7-6 4-3z" fill="#9794FB"/>
<path transform="translate(763,745)" d="m0 0 5 2 19 11 26 16 15 9 26 16 25 15 9 5 6 12 5 9-5-2-25-15-13-8-20-12-28-17-21-13-10-6-4-2-6-12z" fill="#AC9CFD"/>
<path transform="translate(588,1582)" d="m0 0h10v43l-12 2h-28v-43z" fill="#8066F6"/>
<path transform="translate(1464,424)" d="m0 0h2v102l-16 9-2-1 2-102 11-6z" fill="#5D16BB"/>
<path transform="translate(543,625)" d="m0 0 5 2 17 10 19 12 17 10 5 6 8 14 9 16h-3l-22-13-41-25-15-9v-11z" fill="#7F65F5"/>
<path transform="translate(826,1296)" d="m0 0 6 2 27 15 27 16 16 9 17 10 2 2-6 7-3 6-1-2-5-2-18-10-22-13-26-15-17-10-4-4 1-8z" fill="#E0E0E1"/>
<path transform="translate(1759,660)" d="m0 0 14 8 2 7 1 67v29l-4-1-12-7-1-1z" fill="#5D16BC"/>
<path transform="translate(935,1350)" d="m0 0h9l10 4 11 8 9 12 5 10 6 19 3 18v6l-4 2-5-11-4-16-5-6-14-8-5-2-5-5-8-7-12-6-6-2 4-8 8-7z" fill="#E1E1E1"/>
<path transform="translate(670,442)" d="m0 0h2v101l-9 6-6 3h-2l1-85 1-17z" fill="#5D16BC"/>
<path transform="translate(650,1330)" d="m0 0 6 2 12 9 4 5-16 8-23 12-8 4-6-5-10-4-11-3 4-4h-10l-3 2h-13l-12-2-2-3 2-2 4-1h20l18 3 5-1 6-8h2v-2h3v2h-2l-1 4z" fill="#8066F6"/>
<path transform="translate(428,1525)" d="m0 0 5 2 12 8 5 5v2l-31 16-13 7-4-1-8-5-10-3-8-2 2-2 3-1-1-1h-9l-4 2h-11l-12-2-2-1 1-4 6-1h20l16 3h4l8-11 4 1-3 3v2l28-15h2z" fill="#8066F6"/>
<path transform="translate(215,1571)" d="m0 0 2 3 6 12 8 10 11 8-1 46 3 1-2 2-6-1-11-8-8-8 3-3h2l-3-5-6 1-3-7-1-4v-10l4-11 1-1v-24z" fill="#8066F6"/>
<path transform="translate(525,1582)" d="m0 0 33 2v43h16v1h-27l-24-2 2-1z" fill="#8066F6"/>
<path transform="translate(299,1628)" d="m0 0 11 2 18 2 4 1v43h-9l-19-3-4-1z" fill="#8066F6"/>
<path transform="translate(821,1040)" d="m0 0 8 4 13 8 20 12 16 10 5 3 8 16 8 14v2l-5-2-23-14-20-12-13-8-10-19-7-12z" fill="#AC9CFD"/>
<path transform="translate(1448,1189)" d="m0 0 2 2 2 7 4 3-7-1-6 12-4 15-3 20v14l1 7-1 2-7-1-4-5v-8h2v-18l-30-18 5-4 9-6 12-6 12 7 3-9 6-9z" fill="#7635ED"/>
<path transform="translate(1638,640)" d="m0 0h2l2 13 4 10h-8l-2 5-9 7-6-2h-7l-5 2-8-9-4-1h-11l-7 3-5 7-10-1-2-1 1-5 5-10 5-4 10 2h16l14-3 16-7z" fill="#FAB290"/>
<path transform="translate(594,441)" d="m0 0 11 2 11 6 8 7 9 12 6 13-3 1-3-5-6-3v3h-3l-1-7-5-2-6-3 1 9 8 5-1 3-7-4-1 9-3-2-1-10-12-7 1 7-4 1-8-6-2-6h-2v-12l3-6 5-4z" fill="#F6F6F6"/>
<path transform="translate(182,1622)" d="m0 0 2 4 4 9 9 12 3 2v2l4 2 4 3v46l-6-4-10-9-7-10-3-8z" fill="#8066F6"/>
<path transform="translate(475,1478)" d="m0 0 6 1 9 4 11 4 21 5 27 3v2l-21 11h-8l-22-4-20-6-20-9v-2z" fill="#9794FB"/>
<path transform="translate(492,1406)" d="m0 0 6 1 14 6 18 5 18 3 18 2-4 4-17 9-15-1-22-5-22-8-11-5v-2z" fill="#9894FB"/>
<path transform="translate(422,1623)" d="m0 0h1v44l4-1 1 38-13 7h-2l-1-40-3-1v-43z" fill="#8066F6"/>
<path transform="translate(695,1522)" d="m0 0h1v48l-6 12-9 10-8 7h-2l-1-45 10-8 7-8 6-10z" fill="#8066F6"/>
<path transform="translate(855,968)" d="m0 0 6 1 15 9 19 12 1 2-1 24-5-1-23-14-11-7-1-2z" fill="#9985FB"/>
<path transform="translate(926,1011)" d="m0 0 6 1 32 20 3 5-1 22-4-1-13-7-13-8-10-7z" fill="#AC9CFD"/>
<path transform="translate(644,838)" d="m0 0 11 6 22 13 6 5v25l-5-1-20-12-14-9-1-1v-25z" fill="#9985FB"/>
<path transform="translate(573,795)" d="m0 0 10 5 13 8 14 9 2 2v25l-5-1-15-9-13-8-7-5v-25z" fill="#9985FB"/>
<path transform="translate(997,1054)" d="m0 0 5 1 6 3v2l6 2 13 8 8 5 2 2v25l-5-1-13-8-3-1v-2l-6-2-12-8-1-1z" fill="#AC9CFD"/>
<path transform="translate(481,1586)" d="m0 0h1v46l-9 10-7 6-3 2h-3v-45l11-8 7-8h2z" fill="#8066F6"/>
<path transform="translate(669,1555)" d="m0 0h2v45l-13 8-9 3v-45l14-7z" fill="#8066F6"/>
<path transform="translate(1493,1200)" d="m0 0 5 5 9 15 2 3 4 14 3 17 1 34 1 2h-2v18l1 2v7l-5 1-5-4-2-5v-5l3-1v-18l-1-21-1-9-1-3-1-10-5-17-7-14-2-3 1-3h2z" fill="#7635ED"/>
<path transform="translate(683,1408)" d="m0 0h2v46l-11 6-9 4h-2v-44l18-10z" fill="#8066F6"/>
<path transform="translate(524,1391)" d="m0 0 12 1 10 2 19 2v6l-31 16-4 1-18-5-10-4-1-2 19-10h3v-2l3-2-2-1z" fill="#8066F6"/>
<path transform="translate(245,1675)" d="m0 0 16 4 6 2v43l-10-1-11-3-1-1z" fill="#8066F6"/>
<path transform="translate(303,1587)" d="m0 0 10 1 28 3 2 1v6l-25 13-5 3h-7l-18-5-8-4 1-2 16-8 7-4h2v-2h-3z" fill="#8066F6"/>
<path transform="translate(540,1509)" d="m0 0 19 1v44l-8 1-1-1-13-1v-43z" fill="#7F65F5"/>
<path transform="translate(536,1435)" d="m0 0 21 2v43l-4 1-17-2-1-1v-42z" fill="#8066F6"/>
<path transform="translate(488,1570)" d="m0 0 2 4 13 4v44l-14-3-6 12h-1l-1-46 6-12z" fill="#8066F6"/>
<path transform="translate(386,1631)" d="m0 0h5v43l-11 2h-11v-43z" fill="#8066F6"/>
<path transform="translate(318,1686)" d="m0 0h22v43h-22z" fill="#8066F6"/>
<path transform="translate(555,592)" d="m0 0 6 1 8 4 1 5 13 23 7 13-6-2-21-13-20-12v-10l3-5 4-3z" fill="#8066F6"/>
<path transform="translate(592,641)" d="m0 0 6 2 13 8 19 12 20 12 4 4 10 17-2 1-17-10-39-24-4-2-6-12-4-6z" fill="#AC9CFD"/>
<path transform="translate(459,1606)" d="m0 0h1v44l2 1-5 2v13l-4 13-4 5v-26h-4l-1-44 14-7z" fill="#8167F6"/>
<path transform="translate(281,1623)" d="m0 0 18 5 1 1v43l-20-4z" fill="#8066F6"/>
<path transform="translate(456,1450)" d="m0 0 6 3v2l-6 3h-2l7 8 12 9 5 1 14-7 6 1 3 2-14 8h-2l-1 2-6-3-5 1-15 8-5-2-3-2v-2l-5-1-10-8-3-4 19-9h2l-3-7z" fill="#9894FB"/>
<path transform="translate(868,1389)" d="m0 0 7 1 9 6-5 22-1 7-5-1-8-5-9-5-14-8 2-3 11-6z" fill="#7534ED"/>
<path transform="translate(262,780)" d="m0 0 4 1 3 9 11 44 11 36 8 21 2 5-6 2-7-14-10-30-8-29-9-36v-8z" fill="#7532ED"/>
<path transform="translate(1639,670)" d="m0 0h9l6 4 4 5 1 3v7l-3 6-7 6h-11l-5-3-5-6-1-5 2-9 5-6z" fill="#FAB28F"/>
<path transform="translate(1588,667)" d="m0 0h7l6 3 5 6 1 11-4 7-6 4-8 1-7-3-5-6-1-2v-10l4-7z" fill="#FBB28F"/>
<path transform="translate(558,1584)" d="m0 0h18v43h-18z" fill="#8066F6"/>
<path transform="translate(383,1511)" d="m0 0 13 2 17 5 11 4-4 2-19 10-21-4-13-1-1-1v-6l9-6 6-3h2z" fill="#8066F6"/>
<path transform="translate(604,1315)" d="m0 0 20 4 15 5 5 2-4 3-19 9-13-3-20-2v-8l14-8h2z" fill="#8066F6"/>
<path transform="translate(215,1571)" d="m0 0 2 3 6 12 4 5v46h-2l-6-9-6 1-3-7-1-4v-10l4-11 1-1v-24z" fill="#8066F6"/>
<path transform="translate(785,925)" d="m0 0 5 1 10 6 3 7 10 18 8 13v2l-5-2-24-15-6-4-2-3v-22z" fill="#AC9CFD"/>
<path transform="translate(217,1627)" d="m0 0 4 2 1 4-4 3 9 9 11 7h8l4 4h-2l-1 2-6-3-5 1-15 8-5-2-11-7-5-4v-2l-4-2 4-4 14-7h2l-3-7z" fill="#9794FB"/>
<path transform="translate(307,1673)" d="m0 0 25 3h40l8-1h10l-2 2-26 6-26 3h-32l-16-1 4-2 6-4 9-5z" fill="#9893FB"/>
<path transform="translate(303,1685)" d="m0 0 15 1v43h15v1h-29l-1-2z" fill="#8168F6"/>
<path transform="translate(388,1674)" d="m0 0 4 1-1 5 1 40-15 4-3-1 2-2-1-42 13-3z" fill="#8066F6"/>
<path transform="translate(230,1669)" d="m0 0 15 5v45l-11-3-5-2 1-2z" fill="#8066F6"/>
<path transform="translate(612,1578)" d="m0 0 2 1-1 44-11 2h-4v-43l-4-1z" fill="#8066F6"/>
<path transform="translate(578,1552)" d="m0 0h10l-4 3-23 12-1 1 11 1v1h-17l-23-2-12-2 5-5 16-8h10l1 1 23 1v-2z" fill="#9885FA"/>
<path transform="translate(354,1633)" d="m0 0h15v43l3 1h-17l-1-1z" fill="#8066F6"/>
<path transform="translate(1422,1204)" d="m0 0 11 6 1 4-4 16-1 8-5-2-24-14-3-3 14-9z" fill="#5E18BD"/>
<path transform="translate(557,1437)" d="m0 0 15 1v43h-16z" fill="#8066F6"/>
<path transform="translate(681,1468)" d="m0 0h1l1 43 1 2-11 9-5 3v-46l9-7z" fill="#8066F6"/>
<path transform="translate(468,1493)" d="m0 0 18 7v44l-4-5-4-6-5-6-7-5 2-1z" fill="#8066F6"/>
<path transform="translate(544,1584)" d="m0 0h14v43h16v1h-27l-3-1z" fill="#8168F6"/>
<path transform="translate(647,1567)" d="m0 0h2v45l-13 5-2-1 1-43-2-1 12-4z" fill="#8066F6"/>
<path transform="translate(470,1385)" d="m0 0 4 5 10 9 8 5 3 2-17 8-4 2-11-6v-2l-5-2-8-8 1-2 16-8z" fill="#9794FB"/>
<path transform="translate(559,1510)" d="m0 0h14v43l1 2h-21v-1h6z" fill="#8066F6"/>
<path transform="translate(486,1500)" d="m0 0 12 3 2 1v44l-4-1h-7-3z" fill="#8066F6"/>
<path transform="translate(662,1420)" d="m0 0h1l1 45-15 5v-44z" fill="#8066F6"/>
<path transform="translate(348,1684)" d="m0 0h6l1 44-15 1v-43l-4-1z" fill="#8066F6"/>
<path transform="translate(267,1681)" d="m0 0 16 2-2 1v43l-10-1-5-1z" fill="#8066F6"/>
<path transform="translate(536,1479)" d="m0 0 42 2-4 4-18 9 7 1v1h-12l-23-2-11-2-1-2 19-10z" fill="#9885FB"/>
<path transform="translate(317,1631)" d="m0 0 15 2v43h-9l-5-1z" fill="#8066F6"/>
<path transform="translate(1590,713)" d="m0 0 16 1 21 3 2 1-1 5-7 8-7 3h-9l-7-3-5-4-3-7z" fill="#FAFAFA"/>
<path transform="translate(424,851)" d="m0 0h4l1 5-3 2-22 4-18 6-16 8-15 10-7 5v-3l-4-1 5-6 10-7 16-9 14-6 21-6z" fill="#7532ED"/>
<path transform="translate(528,1418)" d="m0 0 28 4 10 1-4 4-17 9-15-1-18-4-3-3z" fill="#AC9CFD"/>
<path transform="translate(513,1565)" d="m0 0 11 1 28 3v2l-21 11-16-1-18-4-2-1v-2l15-8z" fill="#AC9CFD"/>
<path transform="translate(306,1614)" d="m0 0 39 5-1 2-16 8-5 3-18-2-17-4-1-2z" fill="#AC9CFD"/>
<path transform="translate(509,1491)" d="m0 0h8l21 3 11 1v2l-21 11h-8l-22-4-6-2v-2z" fill="#AC9CFD"/>
<path transform="translate(1619,1179)" d="m0 0 4 1 8 35 11 55 5 29v6h-4l-2-8-7-40-11-53-4-18z" fill="#282D41"/>
<path transform="translate(256,977)" d="m0 0 5 1 4 2v2l-12 5-16 10-14 12-12 11-9 9-4 5-5-1 1-5 11-12 12-12 11-9 15-11z" fill="#7431EB"/>
<path transform="translate(394,971)" d="m0 0 9 6 9 7 12 11 10 11 10 15 7 14-1 4-4 1-3-4-8-16-10-13-1-3h-2l-7-8-13-11-12-8 1-2h3z" fill="#7532ED"/>
<path transform="translate(691,1329)" d="m0 0 3 1 11 14 5 12v5l-2-4-2-6-16 8-5 3-3-1-3-10-5-9 16-9 2-2z" fill="#AC9CFD"/>
<path transform="translate(887,1551)" d="m0 0 11 6 13 8v20l-5-1-23-14v-8l3-10z" fill="#9893FB"/>
<path transform="translate(436,1374)" d="m0 0 8 16 4 5v46l-5-5-4-6-3-9z" fill="#8066F6"/>
<path transform="translate(882,1575)" d="m0 0 4 1 19 11 5 3v21l-5-2-20-12-3-21z" fill="#9894FB"/>
<path transform="translate(916,1594)" d="m0 0 12 7 15 9-1 11-2 7-5-1-14-8-6-4v-20z" fill="#9893FB"/>
<path transform="translate(470,1528)" d="m0 0h5l7 9 3 5v4l-22 12-2-1-4-12-4-6v-2z" fill="#AC9CFD"/>
<path transform="translate(272,1667)" d="m0 0h8l17 4 10 2 1 2-15 8-1 1h-9l-18-3-10-3v-2z" fill="#AC9CFD"/>
<path transform="translate(916,1569)" d="m0 0 5 2 14 8 5 5 3 16v5l-5-2-15-9-8-5z" fill="#9894FB"/>
<path transform="translate(692,1449)" d="m0 0h1v43l-2 8-4 8h-2v3l-3 1v-46l7-10z" fill="#8066F6"/>
<path transform="translate(935,1350)" d="m0 0h9l10 4 11 8 9 12 3 6-1 2-26-15-14-8-6-4 2-4z" fill="#FBFAFC"/>
<path transform="translate(1655,1056)" d="m0 0 3 1v4l-10 8-13 8-18 8-21 6-15 2h-16l1-5 18-1 20-4 20-7 15-8 14-10z" fill="#7532ED"/>
<path transform="translate(454,1513)" d="m0 0 10 5 10 10-7 3-15 7-9-8v-2l-4-1v-2l-5-1 3-2z" fill="#9793FB"/>
<path transform="translate(674,1318)" d="m0 0 5 1 11 8 3 5-18 10-4-2v-2l-4-2-3-2v-2h-3v-2h-3v-2l-2-1 16-8z" fill="#9894FB"/>
<path transform="translate(1648,917)" d="m0 0 5 1-2 4-13 5-16 4-14 2-13 1h-18l-19-2v-4l3-1 11 1h28l22-3 19-5z" fill="#7532ED"/>
<path transform="translate(280,1605)" d="m0 0 21 7 5 1v2l-19 10-11-3-16-6 3-2z" fill="#9794FB"/>
<path transform="translate(948,1614)" d="m0 0 5 2 17 10-1 9-4 9-5-2-15-9 1-8z" fill="#9893FB"/>
<path transform="translate(945,1586)" d="m0 0 10 5 10 7 4 14 1 9-5-2-12-7-5-3-3-19z" fill="#9893FB"/>
<path transform="translate(856,1559)" d="m0 0 5 2 15 9 2 5 2 18-6-2-14-9-3-11z" fill="#9893FB"/>
<path transform="translate(1818,804)" d="m0 0h10v2l-6 2-7 10-9 16-14 23-8 14-1 3-4-1v-6l17-29 17-28 3-5z" fill="#303448"/>
<path transform="translate(1542,672)" d="m0 0 8 1 3 2-1 18 1 13-7-2-7-8-3-7v-11l3-5z" fill="#FAB595"/>
<path transform="translate(862,1537)" d="m0 0 4 1 15 9-1 7-2 11-2 1-13-8-7-5 3-12z" fill="#9894FB"/>
<path transform="translate(302,1547)" d="m0 0h1l1 6-5 4-23 12-25 13-3-1-1-5 46-24z" fill="#9885FB"/>
<path transform="translate(522,1352)" d="m0 0h2l2 6-25 13-20 11-8 4-4-1-1-5 20-10 22-12z" fill="#9885FB"/>
<path transform="translate(888,1604)" d="m0 0 5 2 17 10v27l-4-2-7-11-8-15-3-8z" fill="#9893FB"/>
<path transform="translate(1554,1663)" d="m0 0h8l8 2 1 3 15 9-1 4-6-2-7-1-6 5-2 4h-4l1-6 5-6 2-1h-6l-7 8-4-1 2-5 4-5 5-2v-2l-7 2-5 5-2 3-4-1 1-5 7-7z" fill="#F5F4FB"/>
<path transform="translate(1515,898)" d="m0 0 3 1 4 12 2 7 3 15v3h-16l-1-4z" fill="#2B2E46"/>
<path transform="translate(182,1622)" d="m0 0 2 4 4 9 3 5-1 45-4-5-4-9z" fill="#8167F6"/>
<path transform="translate(942,1637)" d="m0 0 5 1 14 9-2 4-8 4-5 1h-8l-13-3 3-3 8-5z" fill="#9893FB"/>
<path transform="translate(915,1620)" d="m0 0 5 2 16 10 1 2-4 6-7 5-6 2h-5z" fill="#9894FB"/>
<path transform="translate(1685,1664)" d="m0 0h6l6 4 11 3v2l9 5-1 3-2-2h-11l-6 5-3 4h-3v-5l6-7 2-1h-6l-5 5-2 3h-4l1-5 6-7 3-2-7 1-5 6-1 2h-4l1-6 4-5z" fill="#F5F4FA"/>
<path transform="translate(864,1589)" d="m0 0 11 6 7 5 8 20 7 13-1 2-12-12-13-18-7-13z" fill="#9892FB"/>
<path transform="translate(419,1446)" d="m0 0 9 18-1 37-6-2-2-6z" fill="#8066F6"/>
<path transform="translate(406,1627)" d="m0 0h3l1 43 3 1v41h-4v-41l-4 1v-44z" fill="#7532ED"/>
<path transform="translate(907,1534)" d="m0 0 4 1v25l-10-5-11-7 1-4h2l1-3 10-6z" fill="#9893FB"/>
<path transform="translate(709,1374)" d="m0 0h1v49l-4 9-3 3-1-45 6-12z" fill="#8167F6"/>
<path transform="translate(695,1522)" d="m0 0h1v48l-6 12-1-4-1-42 5-8z" fill="#8067F6"/>
<path transform="translate(424,1622)" d="m0 0 4 1v42h3v37l-4 1v-37l-4 1v-44z" fill="#7532ED"/>
<path transform="translate(916,1538)" d="m0 0 5 5 9 16 6 13-1 3-14-8-5-3z" fill="#9893FB"/>
<path transform="translate(1518,1161)" d="m0 0h2l1 2 1 41v34l-2-3-3-11-1-61z" fill="#2A2F44"/>
<path transform="translate(928,1547)" d="m0 0 7 6 8 8 11 15 6 11v2l-5-2-13-8-6-15-6-12z" fill="#9893FB"/>
<path transform="translate(877,1527)" d="m0 0h14l8 2v2l-7 4-8 9-11-6-7-4v-2l7-4z" fill="#9893FB"/>
<path transform="translate(619,1340)" d="m0 0h3v2h-2l-2 4-3 5h-2l-2 4-2 1-7-2h-10l-3 2h-13l-12-2-2-3 2-2 4-1h20l18 3 5-1 6-8h2z" fill="#763AEE"/>
<path transform="translate(397,1536)" d="m0 0 4 1-6 7-5 7-10-1h-9l-4 2h-11l-12-2-2-1 1-4 6-1h20l16 3h4z" fill="#7637ED"/>
<path transform="translate(526,1360)" d="m0 0 8 5 14 4 33 4 7 3v2l-8 2h-16l-6-1 4-3-5-2-16-3-10-4-5-5z" fill="#7536ED"/>
<path transform="translate(306,1558)" d="m0 0 5 2 12 4 11 2 20 2 12 3v3l-9 2h-11l-9-1 4-4-20-4-11-4-4-3z" fill="#7535ED"/>
<path transform="translate(1620,1060)" d="m0 0 4 1v3l-18 10-19 7-5 1h-10l-1-3 6-2 16-4 18-8z" fill="#7532ED"/>
<path transform="translate(442,1615)" d="m0 0h3v43h4v27l-2 3h-2l-1-28h-2z" fill="#7532ED"/>
<path transform="translate(301,1584)" d="m0 0 1 2 4 1h-3v2h3v2l-14 8-13 6-6-4 4-3 23-12z" fill="#9783FA"/>
<path transform="translate(1626,820)" d="m0 0 3 1-1 6-6 8-9 8-12 6-6 1-1-4 15-7 8-6 6-9z" fill="#7532ED"/>
<path transform="translate(642,1327)" d="m0 0 6 1 2 1v2l-31 16v-3l1-2h2v-2h-3l-1 2-2-6 6 1z" fill="#9884FA"/>
<path transform="translate(523,1387)" d="m0 0 3 4h-2v2l4 2-5 1v2l-16 8-7 3-5-3 5-5 20-10h2z" fill="#9884FA"/>
<path transform="translate(973,1398)" d="m0 0 5 2 7 3 3 18v6l-4 2-5-11-4-16z" fill="#FBFBFC"/>
<path transform="translate(420,1523)" d="m0 0 7 1 1 3-25 13-6 3 1-4 2-2-2-2 2-2 16-8z" fill="#9884FA"/>
<path transform="translate(190,1640)" d="m0 0h2l2 3v46h-2l-2-3z" fill="#7533ED"/>
<path transform="translate(223,1588)" d="m0 0h2l2 3v46h-2l-2-3z" fill="#7532ED"/>
<path transform="translate(575,1509)" d="m0 0h2v43l-3 2h-14v-1h13v-43z" fill="#7532ED"/>
<path transform="translate(701,1391)" d="m0 0h2v46l-4 2v-46z" fill="#7635ED"/>
<path transform="translate(481,1586)" d="m0 0h1v46l-2 3h-2v-46h2z" fill="#7533ED"/>
<path transform="translate(684,1463)" d="m0 0h2v45l-1 3-3 1v-46z" fill="#7532ED"/>
<path transform="translate(683,1408)" d="m0 0h2v46l-4 1v-45z" fill="#7533ED"/>
<path transform="translate(444,1392)" d="m0 0h2l2 3v46l-4-4z" fill="#7532ED"/>
<path transform="translate(208,1657)" d="m0 0 4 2v45l-4-2z" fill="#7532ED"/>
<path transform="translate(462,1604)" d="m0 0h2v45l-4 1v-45z" fill="#7533ED"/>
<path transform="translate(669,1555)" d="m0 0h2v45l-4 1v-45z" fill="#7533ED"/>
<path transform="translate(667,1480)" d="m0 0h1v46l-4 1v-45z" fill="#7532ED"/>
<path transform="translate(651,1565)" d="m0 0h2v45l-4 1v-45z" fill="#7533ED"/>
<path transform="translate(630,1498)" d="m0 0h2v44l-4 1-1-44z" fill="#7532ED"/>
<path transform="translate(241,1605)" d="m0 0 4 2v44l-4-1z" fill="#7532ED"/>
<path transform="translate(649,1491)" d="m0 0h1v45l-4 1v-45z" fill="#7532ED"/>
<path transform="translate(462,1409)" d="m0 0 4 2v45l-4-2z" fill="#7532ED"/>
<path transform="translate(259,1615)" d="m0 0 4 2 1 44-5-1z" fill="#7532ED"/>
<path transform="translate(481,1420)" d="m0 0h4v45l-4-1z" fill="#7532ED"/>
<path transform="translate(245,1675)" d="m0 0 4 1v44l-4-1z" fill="#7532ED"/>
<path transform="translate(555,1510)" d="m0 0h4v44h-5z" fill="#7532ED"/>
<path transform="translate(499,1427)" d="m0 0h4v45l-4-1z" fill="#7532ED"/>
<path transform="translate(664,1419)" d="m0 0h3v44l-4 1v-44z" fill="#7532ED"/>
<path transform="translate(591,1507)" d="m0 0h4v44h-4z" fill="#7532ED"/>
<path transform="translate(500,1504)" d="m0 0h4v44h-4z" fill="#7532ED"/>
<path transform="translate(646,1426)" d="m0 0h3v44l-4 1v-44z" fill="#7532ED"/>
<path transform="translate(372,1680)" d="m0 0h4l1 42-5 2z" fill="#7532ED"/>
<path transform="translate(314,1631)" d="m0 0 4 1v43h-4z" fill="#7532ED"/>
<path transform="translate(609,1435)" d="m0 0h3v44h-4v-43z" fill="#7532ED"/>
<path transform="translate(517,1432)" d="m0 0 4 1v43h-4z" fill="#7532ED"/>
<path transform="translate(263,1680)" d="m0 0 4 1v43h-4z" fill="#7532ED"/>
<path transform="translate(296,1628)" d="m0 0 4 1v43l-4-1z" fill="#7532ED"/>
<path transform="translate(503,1578)" d="m0 0 4 1v43h-4z" fill="#7532ED"/>
<path transform="translate(632,1573)" d="m0 0h3v43l-4 1v-43z" fill="#7532ED"/>
<path transform="translate(536,1435)" d="m0 0h3v44l-4-1v-42z" fill="#7532ED"/>
<path transform="translate(626,1432)" d="m0 0h4v43l-4 1z" fill="#7532ED"/>
<path transform="translate(387,1631)" d="m0 0h4v43l-4 1z" fill="#7532ED"/>
<path transform="translate(590,1437)" d="m0 0h4v43l-3 1-1-1z" fill="#7532ED"/>
<path transform="translate(336,1686)" d="m0 0h4v43h-4z" fill="#7532ED"/>
<path transform="translate(318,1686)" d="m0 0h4v43h-4z" fill="#7532ED"/>
<path transform="translate(281,1684)" d="m0 0h4v43h-4z" fill="#7532ED"/>
<path transform="translate(369,1633)" d="m0 0h4v43h-4z" fill="#7532ED"/>
<path transform="translate(332,1633)" d="m0 0h4v43h-4z" fill="#7532ED"/>
<path transform="translate(558,1584)" d="m0 0h4v43h-4z" fill="#7532ED"/>
<path transform="translate(540,1584)" d="m0 0h4v43h-4z" fill="#7532ED"/>
<path transform="translate(594,1582)" d="m0 0h4v43h-4z" fill="#7532ED"/>
<path transform="translate(518,1508)" d="m0 0h4v43h-4z" fill="#7532ED"/>
<path transform="translate(572,1438)" d="m0 0h4v43h-4z" fill="#7532ED"/>
<path transform="translate(354,1684)" d="m0 0h4v42l-4 1z" fill="#7532ED"/>
<path transform="translate(576,1584)" d="m0 0h4v42l-4 1z" fill="#7532ED"/>
<path transform="translate(619,1298)" d="m0 0 9 1 9 2v1l-8 2-13 7h-11l-2-2 14-7 3-2z" fill="#AD9EFD"/>
<path transform="translate(738,895)" d="m0 0 11 6 5 5v17l-3-3-13-23z" fill="#AD9DFE"/>
<path transform="translate(482,1499)" d="m0 0 4 1v44l-4-5z" fill="#7532ED"/>
<path transform="translate(399,1494)" d="m0 0 9 1 4 1v2l-18 9h-9l-2-2 10-6 6-3z" fill="#AD9EFD"/>
<path transform="translate(238,1654)" d="m0 0 5 1 4 3-8 5-8 4-4 1-6-3v-2z" fill="#AC9CFD"/>
<path transform="translate(270,1602)" d="m0 0 7 1 3 3-17 9-7-1-2-1 1-3z" fill="#AC9CFD"/>
<path transform="translate(475,1478)" d="m0 0 6 1 3 3-10 6-8 4-6-2-2-1v-2z" fill="#AC9CFD"/>
<path transform="translate(492,1406)" d="m0 0 6 1 3 3-17 9-7-1-2-1v-2z" fill="#AC9CFD"/>
<path transform="translate(666,1313)" d="m0 0 4 1 6 3-4 3-13 7-7-1-2-1 1-3 13-7h2z" fill="#AC9CFD"/>
<path transform="translate(445,1510)" d="m0 0 7 1 2 1v2l-17 9-6-1-2-1 1-3z" fill="#AC9CFD"/>
<path transform="translate(212,1630)" d="m0 0 3 1 1 5-19 10-3-1-2-4 9-5z" fill="#AC9CFD"/>
<path transform="translate(449,1454)" d="m0 0 3 1 1 5-18 9h-4l-2-4 14-8z" fill="#AC9CFD"/>
<path transform="translate(244,1578)" d="m0 0 4 1 1 4-19 10h-3l-2-5z" fill="#AC9CFD"/>
<path transform="translate(427,1464)" d="m0 0h2l2 3v35l-4-1z" fill="#7532ED"/>
<path transform="translate(465,1382)" d="m0 0 4 1 1 4-12 7-9 3-3-3v-2z" fill="#AC9CFD"/>
<path transform="translate(688,1537)" d="m0 0h1l1 42-2 6h-2v-46z" fill="#7533ED"/>
<path transform="translate(227,1668)" d="m0 0h3l1 4v41h-4z" fill="#7533ED"/>
<path transform="translate(1590,659)" d="m0 0h14l4 2-1 4-1 1-9-1h-15l-2-1v-2z" fill="#31364B"/>
<path transform="translate(392,1675)" d="m0 0 3 1-1 43h-3l-1-40z" fill="#7532ED"/>
<path transform="translate(610,1504)" d="m0 0h3v44l-4-1z" fill="#7532ED"/>
<path transform="translate(278,1623)" d="m0 0h3v44h-3z" fill="#7532ED"/>
<path transform="translate(614,1578)" d="m0 0h2v44l-4-1 1-42z" fill="#7532ED"/>
<path transform="translate(553,1437)" d="m0 0h4v43h-3z" fill="#7532ED"/>
<path transform="translate(984,1430)" d="m0 0 3 4 1 4v15l-2 3-5-4v-11z" fill="#FBFBFC"/>
<path transform="translate(300,1686)" d="m0 0h3l1 43h-4z" fill="#7532ED"/>
<path transform="translate(351,1634)" d="m0 0h3l1 43h-4z" fill="#7532ED"/>
<path transform="translate(492,1469)" d="m0 0 6 1 3 2-14 8h-2l-1 2-8-4 4-3z" fill="#9885FB"/>
<path transform="translate(522,1582)" d="m0 0h3v43h-3z" fill="#7532ED"/>
<path transform="translate(537,1510)" d="m0 0h3v43h-3z" fill="#7532ED"/>
<path transform="translate(372,1510)" d="m0 0h8l3 1v2l-15 8-2 1-1-2-7-1 3-3z" fill="#9884FA"/>
<path transform="translate(1827,743)" d="m0 0h1v21l-6-2-1-1v-14z" fill="#5D19BB"/>
<path transform="translate(1401,509)" d="m0 0 7 3v15l-5 3h-2z" fill="#5D17BD"/>
<path transform="translate(596,468)" d="m0 0 6 2 7 5v10l-12-7z" fill="#856CF7"/>
<path transform="translate(598,456)" d="m0 0 11 6 1 1-1 9-10-5-3-2 1-7z" fill="#866EF7"/>
<path transform="translate(404,1575)" d="m0 0 1 3-4 6-9 5-14 4-11 1v-3l16-3 16-7z" fill="#7536ED"/>
<path transform="translate(625,1379)" d="m0 0 1 4-5 6-10 5-17 4h-6v-3l17-3 13-5 3-1 2-4z" fill="#7536ED"/>
<path transform="translate(1720,915)" d="m0 0 3 1 1 3-7 6-7 11-1 2h-4v-5l8-11 4-5z" fill="#5D17BD"/>
<path transform="translate(612,477)" d="m0 0 12 6 1 1-1 8-2 1-10-6z" fill="#856DF7"/>
<path transform="translate(612,465)" d="m0 0 6 2 5 3 2 7v4l-6-2-7-5z" fill="#856CF7"/>
<path transform="translate(303,1587)" d="m0 0 10 1 28 3 2 1-1 3-22-2-14-3-3-1z" fill="#7535ED"/>
<path transform="translate(608,527)" d="m0 0 5 2 1 1v14l-6 4h-1v-12z" fill="#5D16BC"/>
<path transform="translate(592,1315)" d="m0 0h12v2l-16 8v-2h-9l3-3z" fill="#9985FB"/>
<path transform="translate(464,1492)" d="m0 0 4 1v28l-4-1-1-3z" fill="#7532ED"/>
<path transform="translate(524,1391)" d="m0 0 12 1 10 2 18 2v3l-24-2-16-4z" fill="#7535ED"/>
<path transform="translate(1480,982)" d="m0 0h8l12 3 2 1v5l-12-3-10-1-1-3z" fill="#7532ED"/>
<path transform="translate(348,1547)" d="m0 0h18l10 1v1l-9 3h-11l-12-2v-2z" fill="#8066F6"/>
<path transform="translate(570,1351)" d="m0 0h16l9 1-6 4h-13l-12-2 2-2z" fill="#8066F6"/>
<path transform="translate(1641,1322)" d="m0 0 3 1 3 3 16 2h27l10-1-1 2-3 1h-40l-20-4 4-2z" fill="#6C6E8C"/>
<path transform="translate(626,473)" d="m0 0 8 4 3 5 1 7-5-2-6-4z" fill="#886FF7"/>
<path transform="translate(560,1374)" d="m0 0 13 1 11 2 2 2-6 1h-16l-6-1 4-3z" fill="#8066F6"/>
<path transform="translate(627,486)" d="m0 0 10 5 1 4-2 5-6-2-4-3z" fill="#866EF7"/>
<path transform="translate(341,1570)" d="m0 0 19 2 4 1v2l-7 1h-11l-9-1 4-4z" fill="#8066F6"/>
<path transform="translate(583,460)" d="m0 0 5 2 6 4v10l-9-6z" fill="#876EF7"/>
<path transform="translate(586,449)" d="m0 0 5 2 4 3-1 8-5-1-6-4z" fill="#866EF7"/>
<path transform="translate(620,462)" d="m0 0h2l3 6v2l5 2h2l-1-3 3 1 5 11-3 1-3-5-6-3v3h-3l-1-7-3-1 1-3z" fill="#F7F7F7"/>
<path transform="translate(1640,678)" d="m0 0 5 1 1 2v6l-3 4-4-1-2-4 1-6z" fill="#2E3348"/>
<path transform="translate(599,482)" d="m0 0 5 2 5 3v13l-4-4-6-12z" fill="#876EF7"/>
<path transform="translate(1596,675)" d="m0 0 4 2 1 1v7l-2 3h-5l-1-2v-8z" fill="#2A2F43"/>
<path transform="translate(1660,661)" d="m0 0h1l1 10 3 5v9l-2 6h-1l-2-13-3-5v-3h3z" fill="#EFB29B"/>
<path transform="translate(612,489)" d="m0 0 10 6-3 5-4 2h-4z" fill="#876FF7"/>
<path transform="translate(625,497)" d="m0 0 9 5-3 3-2 1h-9l-3-2z" fill="#8870F7"/>
<path transform="translate(446,1482)" d="m0 0 3 1v27l-4-3z" fill="#7532ED"/>
<path transform="translate(587,475)" d="m0 0 6 2 3 2 5 12 1 4-6-5-9-14z" fill="#8C75F8"/>
<path transform="translate(606,448)" d="m0 0h4v11h-3l-7-4 2-4z" fill="#8971F7"/>
<path transform="translate(612,450)" d="m0 0 4 4 6 12-2 1-8-5z" fill="#8B74F8"/>
<path transform="translate(874,1445)" d="m0 0h2v7l2 4 5-1 2-4 2 4-1 5-6 1-5-5-2-5v-5z" fill="#7639EE"/>
<path transform="translate(619,455)" d="m0 0 6 5 8 12-1 2-7-4-6-13z" fill="#8E77F8"/>
<path transform="translate(594,444)" d="m0 0 9 1v2l-6 5-5-2-4-3 2-2z" fill="#8A73F7"/>
<path transform="translate(565,1405)" d="m0 0h23v3h-23z" fill="#7532ED"/>
<path transform="translate(489,1546)" d="m0 0h7l4 2-4 3-7 3-2-5z" fill="#9985FB"/>
<path transform="translate(592,1353)" d="m0 0h10v3l-4 2-16-1v-1l7-1z" fill="#9783FA"/>
<path transform="translate(344,1601)" d="m0 0h23l-1 3h-22z" fill="#7532ED"/>
<path transform="translate(456,1450)" d="m0 0 6 3v2l-6 3-4-1-2-4z" fill="#9885FB"/>
<path transform="translate(330,1570)" d="m0 0h11v3l-4 2-9-1-2-2z" fill="#9985FB"/>
<path transform="translate(972,1503)" d="m0 0h2l1 8-1 2h-6l-4-4 1-2 6 2z" fill="#763AEE"/>
<path transform="translate(552,1374)" d="m0 0h8l4 2-6 3-9-1-1-2z" fill="#9985FB"/>
<path transform="translate(371,1549)" d="m0 0h9l2 2-6 3-8-1v-3z" fill="#9884FA"/>
<path transform="translate(1695,1327)" d="m0 0h5l-1 2-3 1h-34l1-2h27z" fill="#666984"/>
<path transform="translate(1845,801)" d="m0 0h14l1 2-19 2-2-2z" fill="#3A3E54"/>
<path transform="translate(217,1627)" d="m0 0 4 2 1 4-6 2-3-6z" fill="#9985FB"/>
<path transform="translate(242,1652)" d="m0 0 5 1 3 3h-2l-1 2-9-4z" fill="#9886FB"/>
<path transform="translate(586,476)" d="m0 0h2l7 12h-3l-6-10z" fill="#F6F6F6"/>
<path transform="translate(619,1340)" d="m0 0h3v2h-2l-2 4-5 3 2-4 2-3h2z" fill="#7841EF"/>
<path transform="translate(213,1597)" d="m0 0h2l-2 8-2 5h-1l1-9z" fill="#773CEE"/>
</svg>
